<svg width="270" height="48" viewBox="0 0 270 48" fill="none" xmlns="http://www.w3.org/2000/svg">
<path d="M5.00132 19.0001C4.39332 19.0001 3.82132 18.6281 3.59532 18.0241C3.30532 17.2481 3.69932 16.3841 4.47532 16.0941L36.2753 4.22008C38.0793 3.55008 40.1973 4.55608 40.8153 6.37608L44.4213 17.0181C44.6873 17.8041 44.2653 18.6541 43.4813 18.9201C42.6993 19.1841 41.8453 18.7641 41.5793 17.9801L37.9733 7.33808C37.9173 7.17008 37.7493 7.00008 37.5013 7.00008L5.52532 18.9061C5.35332 18.9701 5.17532 19.0001 5.00132 19.0001Z" fill="url(#paint0_linear_340_7524)"/>
<path d="M42.5 44H5.5C2.466 44 0 41.534 0 38.5V35C0 34.172 0.672 33.5 1.5 33.5H2.5C4.43 33.5 6 31.93 6 30C6 28.07 4.43 26.5 2.5 26.5H1.5C0.672 26.5 0 25.828 0 25V21.5C0 18.466 2.466 16 5.5 16H42.5C45.534 16 48 18.466 48 21.5V25C48 25.828 47.328 26.5 46.5 26.5H45.5C43.57 26.5 42 28.07 42 30C42 30.934 42.364 31.814 43.026 32.474C43.688 33.134 44.566 33.498 45.498 33.498H46.498C47.326 33.498 47.998 34.17 47.998 34.998V38.498C48 41.534 45.534 44 42.5 44ZM3 36.482V38.5C3 39.878 4.122 41 5.5 41H42.5C43.878 41 45 39.878 45 38.5V36.48C43.454 36.364 42.014 35.704 40.904 34.596C39.676 33.368 39 31.736 39 30C39 26.584 41.648 23.776 45 23.518V21.5C45 20.122 43.878 19 42.5 19H5.5C4.122 19 3 20.122 3 21.5V23.518C6.352 23.774 9 26.584 9 30C9 33.416 6.352 36.224 3 36.482Z" fill="url(#paint1_linear_340_7524)"/>
<path d="M17.5 21.5C16.672 21.5 16 20.828 16 20V18C16 17.172 16.672 16.5 17.5 16.5C18.328 16.5 19 17.172 19 18V20C19 20.828 18.328 21.5 17.5 21.5Z" fill="url(#paint2_linear_340_7524)"/>
<path d="M17.5 34C16.672 34 16 33.328 16 32.5V27.5C16 26.672 16.672 26 17.5 26C18.328 26 19 26.672 19 27.5V32.5C19 33.328 18.328 34 17.5 34Z" fill="url(#paint3_linear_340_7524)"/>
<path d="M17.5 43.5C16.672 43.5 16 42.828 16 42V40C16 39.172 16.672 38.5 17.5 38.5C18.328 38.5 19 39.172 19 40V42C19 42.828 18.328 43.5 17.5 43.5Z" fill="url(#paint4_linear_340_7524)"/>
<path d="M72.2031 30.5117H67.8203L67.7969 28.0977H71.4766C72.125 28.0977 72.6562 28.0156 73.0703 27.8516C73.4844 27.6797 73.793 27.4336 73.9961 27.1133C74.207 26.7852 74.3125 26.3867 74.3125 25.918C74.3125 25.3867 74.2109 24.957 74.0078 24.6289C73.8125 24.3008 73.5039 24.0625 73.082 23.9141C72.668 23.7656 72.1328 23.6914 71.4766 23.6914H69.0391V38H65.5234V20.9375H71.4766C72.4688 20.9375 73.3555 21.0312 74.1367 21.2188C74.9258 21.4062 75.5938 21.6914 76.1406 22.0742C76.6875 22.457 77.1055 22.9414 77.3945 23.5273C77.6836 24.1055 77.8281 24.793 77.8281 25.5898C77.8281 26.293 77.668 26.9414 77.3477 27.5352C77.0352 28.1289 76.5391 28.6133 75.8594 28.9883C75.1875 29.3633 74.3086 29.5703 73.2227 29.6094L72.2031 30.5117ZM72.0508 38H66.8594L68.2305 35.2578H72.0508C72.668 35.2578 73.1719 35.1602 73.5625 34.9648C73.9531 34.7617 74.2422 34.4883 74.4297 34.1445C74.6172 33.8008 74.7109 33.4062 74.7109 32.9609C74.7109 32.4609 74.625 32.0273 74.4531 31.6602C74.2891 31.293 74.0234 31.0117 73.6562 30.8164C73.2891 30.6133 72.8047 30.5117 72.2031 30.5117H68.8164L68.8398 28.0977H73.0586L73.8672 29.0469C74.9062 29.0312 75.7422 29.2148 76.375 29.5977C77.0156 29.9727 77.4805 30.4609 77.7695 31.0625C78.0664 31.6641 78.2148 32.3086 78.2148 32.9961C78.2148 34.0898 77.9766 35.0117 77.5 35.7617C77.0234 36.5039 76.3242 37.0625 75.4023 37.4375C74.4883 37.8125 73.3711 38 72.0508 38ZM80.1016 31.7891V31.543C80.1016 30.6133 80.2344 29.7578 80.5 28.9766C80.7656 28.1875 81.1523 27.5039 81.6602 26.9258C82.168 26.3477 82.793 25.8984 83.5352 25.5781C84.2773 25.25 85.1289 25.0859 86.0898 25.0859C87.0508 25.0859 87.9062 25.25 88.6562 25.5781C89.4062 25.8984 90.0352 26.3477 90.543 26.9258C91.0586 27.5039 91.4492 28.1875 91.7148 28.9766C91.9805 29.7578 92.1133 30.6133 92.1133 31.543V31.7891C92.1133 32.7109 91.9805 33.5664 91.7148 34.3555C91.4492 35.1367 91.0586 35.8203 90.543 36.4062C90.0352 36.9844 89.4102 37.4336 88.668 37.7539C87.9258 38.0742 87.0742 38.2344 86.1133 38.2344C85.1523 38.2344 84.2969 38.0742 83.5469 37.7539C82.8047 37.4336 82.1758 36.9844 81.6602 36.4062C81.1523 35.8203 80.7656 35.1367 80.5 34.3555C80.2344 33.5664 80.1016 32.7109 80.1016 31.7891ZM83.4766 31.543V31.7891C83.4766 32.3203 83.5234 32.8164 83.6172 33.2773C83.7109 33.7383 83.8594 34.1445 84.0625 34.4961C84.2734 34.8398 84.5469 35.1094 84.8828 35.3047C85.2188 35.5 85.6289 35.5977 86.1133 35.5977C86.582 35.5977 86.9844 35.5 87.3203 35.3047C87.6562 35.1094 87.9258 34.8398 88.1289 34.4961C88.332 34.1445 88.4805 33.7383 88.5742 33.2773C88.6758 32.8164 88.7266 32.3203 88.7266 31.7891V31.543C88.7266 31.0273 88.6758 30.543 88.5742 30.0898C88.4805 29.6289 88.3281 29.2227 88.1172 28.8711C87.9141 28.5117 87.6445 28.2305 87.3086 28.0273C86.9727 27.8242 86.5664 27.7227 86.0898 27.7227C85.6133 27.7227 85.207 27.8242 84.8711 28.0273C84.543 28.2305 84.2734 28.5117 84.0625 28.8711C83.8594 29.2227 83.7109 29.6289 83.6172 30.0898C83.5234 30.543 83.4766 31.0273 83.4766 31.543ZM93.6484 31.7891V31.543C93.6484 30.6133 93.7812 29.7578 94.0469 28.9766C94.3125 28.1875 94.6992 27.5039 95.207 26.9258C95.7148 26.3477 96.3398 25.8984 97.082 25.5781C97.8242 25.25 98.6758 25.0859 99.6367 25.0859C100.598 25.0859 101.453 25.25 102.203 25.5781C102.953 25.8984 103.582 26.3477 104.09 26.9258C104.605 27.5039 104.996 28.1875 105.262 28.9766C105.527 29.7578 105.66 30.6133 105.66 31.543V31.7891C105.66 32.7109 105.527 33.5664 105.262 34.3555C104.996 35.1367 104.605 35.8203 104.09 36.4062C103.582 36.9844 102.957 37.4336 102.215 37.7539C101.473 38.0742 100.621 38.2344 99.6602 38.2344C98.6992 38.2344 97.8438 38.0742 97.0938 37.7539C96.3516 37.4336 95.7227 36.9844 95.207 36.4062C94.6992 35.8203 94.3125 35.1367 94.0469 34.3555C93.7812 33.5664 93.6484 32.7109 93.6484 31.7891ZM97.0234 31.543V31.7891C97.0234 32.3203 97.0703 32.8164 97.1641 33.2773C97.2578 33.7383 97.4062 34.1445 97.6094 34.4961C97.8203 34.8398 98.0938 35.1094 98.4297 35.3047C98.7656 35.5 99.1758 35.5977 99.6602 35.5977C100.129 35.5977 100.531 35.5 100.867 35.3047C101.203 35.1094 101.473 34.8398 101.676 34.4961C101.879 34.1445 102.027 33.7383 102.121 33.2773C102.223 32.8164 102.273 32.3203 102.273 31.7891V31.543C102.273 31.0273 102.223 30.543 102.121 30.0898C102.027 29.6289 101.875 29.2227 101.664 28.8711C101.461 28.5117 101.191 28.2305 100.855 28.0273C100.52 27.8242 100.113 27.7227 99.6367 27.7227C99.1602 27.7227 98.7539 27.8242 98.418 28.0273C98.0898 28.2305 97.8203 28.5117 97.6094 28.8711C97.4062 29.2227 97.2578 29.6289 97.1641 30.0898C97.0703 30.543 97.0234 31.0273 97.0234 31.543ZM111.109 19.9883V38H107.734V19.9883H111.109ZM119.102 25.3203L113.594 31.6016L110.641 34.5898L109.41 32.1523L111.754 29.1758L115.047 25.3203H119.102ZM115.598 38L111.848 32.1406L114.18 30.1016L119.488 38H115.598ZM124.316 36.5703L127.68 25.3203H131.301L126.203 39.9102C126.094 40.2305 125.945 40.5742 125.758 40.9414C125.578 41.3086 125.332 41.6562 125.02 41.9844C124.715 42.3203 124.328 42.5938 123.859 42.8047C123.398 43.0156 122.832 43.1211 122.16 43.1211C121.84 43.1211 121.578 43.1016 121.375 43.0625C121.172 43.0234 120.93 42.9688 120.648 42.8984V40.4258C120.734 40.4258 120.824 40.4258 120.918 40.4258C121.012 40.4336 121.102 40.4375 121.188 40.4375C121.633 40.4375 121.996 40.3867 122.277 40.2852C122.559 40.1836 122.785 40.0273 122.957 39.8164C123.129 39.6133 123.266 39.3477 123.367 39.0195L124.316 36.5703ZM122.91 25.3203L125.664 34.5078L126.145 38.082L123.848 38.3281L119.289 25.3203H122.91ZM131.922 31.7891V31.543C131.922 30.6133 132.055 29.7578 132.32 28.9766C132.586 28.1875 132.973 27.5039 133.48 26.9258C133.988 26.3477 134.613 25.8984 135.355 25.5781C136.098 25.25 136.949 25.0859 137.91 25.0859C138.871 25.0859 139.727 25.25 140.477 25.5781C141.227 25.8984 141.855 26.3477 142.363 26.9258C142.879 27.5039 143.27 28.1875 143.535 28.9766C143.801 29.7578 143.934 30.6133 143.934 31.543V31.7891C143.934 32.7109 143.801 33.5664 143.535 34.3555C143.27 35.1367 142.879 35.8203 142.363 36.4062C141.855 36.9844 141.23 37.4336 140.488 37.7539C139.746 38.0742 138.895 38.2344 137.934 38.2344C136.973 38.2344 136.117 38.0742 135.367 37.7539C134.625 37.4336 133.996 36.9844 133.48 36.4062C132.973 35.8203 132.586 35.1367 132.32 34.3555C132.055 33.5664 131.922 32.7109 131.922 31.7891ZM135.297 31.543V31.7891C135.297 32.3203 135.344 32.8164 135.438 33.2773C135.531 33.7383 135.68 34.1445 135.883 34.4961C136.094 34.8398 136.367 35.1094 136.703 35.3047C137.039 35.5 137.449 35.5977 137.934 35.5977C138.402 35.5977 138.805 35.5 139.141 35.3047C139.477 35.1094 139.746 34.8398 139.949 34.4961C140.152 34.1445 140.301 33.7383 140.395 33.2773C140.496 32.8164 140.547 32.3203 140.547 31.7891V31.543C140.547 31.0273 140.496 30.543 140.395 30.0898C140.301 29.6289 140.148 29.2227 139.938 28.8711C139.734 28.5117 139.465 28.2305 139.129 28.0273C138.793 27.8242 138.387 27.7227 137.91 27.7227C137.434 27.7227 137.027 27.8242 136.691 28.0273C136.363 28.2305 136.094 28.5117 135.883 28.8711C135.68 29.2227 135.531 29.6289 135.438 30.0898C135.344 30.543 135.297 31.0273 135.297 31.543ZM153.508 34.9648V25.3203H156.883V38H153.707L153.508 34.9648ZM153.883 32.3633L154.879 32.3398C154.879 33.1836 154.781 33.9688 154.586 34.6953C154.391 35.4141 154.098 36.0391 153.707 36.5703C153.316 37.0938 152.824 37.5039 152.23 37.8008C151.637 38.0898 150.938 38.2344 150.133 38.2344C149.516 38.2344 148.945 38.1484 148.422 37.9766C147.906 37.7969 147.461 37.5195 147.086 37.1445C146.719 36.7617 146.43 36.2734 146.219 35.6797C146.016 35.0781 145.914 34.3555 145.914 33.5117V25.3203H149.289V33.5352C149.289 33.9102 149.332 34.2266 149.418 34.4844C149.512 34.7422 149.641 34.9531 149.805 35.1172C149.969 35.2812 150.16 35.3984 150.379 35.4688C150.605 35.5391 150.855 35.5742 151.129 35.5742C151.824 35.5742 152.371 35.4336 152.77 35.1523C153.176 34.8711 153.461 34.4883 153.625 34.0039C153.797 33.5117 153.883 32.9648 153.883 32.3633ZM162.836 28.0859V38H159.461V25.3203H162.637L162.836 28.0859ZM166.656 25.2383L166.598 28.3672C166.434 28.3438 166.234 28.3242 166 28.3086C165.773 28.2852 165.566 28.2734 165.379 28.2734C164.902 28.2734 164.488 28.3359 164.137 28.4609C163.793 28.5781 163.504 28.7539 163.27 28.9883C163.043 29.2227 162.871 29.5078 162.754 29.8438C162.645 30.1797 162.582 30.5625 162.566 30.9922L161.887 30.7812C161.887 29.9609 161.969 29.207 162.133 28.5195C162.297 27.8242 162.535 27.2188 162.848 26.7031C163.168 26.1875 163.559 25.7891 164.02 25.5078C164.48 25.2266 165.008 25.0859 165.602 25.0859C165.789 25.0859 165.98 25.1016 166.176 25.1328C166.371 25.1562 166.531 25.1914 166.656 25.2383ZM175.047 25.3203V27.7109H167.664V25.3203H175.047ZM169.492 22.1914H172.867V34.1797C172.867 34.5469 172.914 34.8281 173.008 35.0234C173.109 35.2188 173.258 35.3555 173.453 35.4336C173.648 35.5039 173.895 35.5391 174.191 35.5391C174.402 35.5391 174.59 35.5312 174.754 35.5156C174.926 35.4922 175.07 35.4688 175.188 35.4453L175.199 37.9297C174.91 38.0234 174.598 38.0977 174.262 38.1523C173.926 38.207 173.555 38.2344 173.148 38.2344C172.406 38.2344 171.758 38.1133 171.203 37.8711C170.656 37.6211 170.234 37.2227 169.938 36.6758C169.641 36.1289 169.492 35.4102 169.492 34.5195V22.1914ZM180.531 25.3203V38H177.145V25.3203H180.531ZM176.934 22.0156C176.934 21.5234 177.105 21.1172 177.449 20.7969C177.793 20.4766 178.254 20.3164 178.832 20.3164C179.402 20.3164 179.859 20.4766 180.203 20.7969C180.555 21.1172 180.73 21.5234 180.73 22.0156C180.73 22.5078 180.555 22.9141 180.203 23.2344C179.859 23.5547 179.402 23.7148 178.832 23.7148C178.254 23.7148 177.793 23.5547 177.449 23.2344C177.105 22.9141 176.934 22.5078 176.934 22.0156ZM188.559 35.5977C188.973 35.5977 189.34 35.5195 189.66 35.3633C189.98 35.1992 190.23 34.9727 190.41 34.6836C190.598 34.3867 190.695 34.0391 190.703 33.6406H193.879C193.871 34.5312 193.633 35.3242 193.164 36.0195C192.695 36.707 192.066 37.25 191.277 37.6484C190.488 38.0391 189.605 38.2344 188.629 38.2344C187.645 38.2344 186.785 38.0703 186.051 37.7422C185.324 37.4141 184.719 36.9609 184.234 36.3828C183.75 35.7969 183.387 35.1172 183.145 34.3438C182.902 33.5625 182.781 32.7266 182.781 31.8359V31.4961C182.781 30.5977 182.902 29.7617 183.145 28.9883C183.387 28.207 183.75 27.5273 184.234 26.9492C184.719 26.3633 185.324 25.9062 186.051 25.5781C186.777 25.25 187.629 25.0859 188.605 25.0859C189.645 25.0859 190.555 25.2852 191.336 25.6836C192.125 26.082 192.742 26.6523 193.188 27.3945C193.641 28.1289 193.871 29 193.879 30.0078H190.703C190.695 29.5859 190.605 29.2031 190.434 28.8594C190.27 28.5156 190.027 28.2422 189.707 28.0391C189.395 27.8281 189.008 27.7227 188.547 27.7227C188.055 27.7227 187.652 27.8281 187.34 28.0391C187.027 28.2422 186.785 28.5234 186.613 28.8828C186.441 29.2344 186.32 29.6367 186.25 30.0898C186.188 30.5352 186.156 31.0039 186.156 31.4961V31.8359C186.156 32.3281 186.188 32.8008 186.25 33.2539C186.312 33.707 186.43 34.1094 186.602 34.4609C186.781 34.8125 187.027 35.0898 187.34 35.293C187.652 35.4961 188.059 35.5977 188.559 35.5977ZM199.211 19.9883V38H195.836V19.9883H199.211ZM207.203 25.3203L201.695 31.6016L198.742 34.5898L197.512 32.1523L199.855 29.1758L203.148 25.3203H207.203ZM203.699 38L199.949 32.1406L202.281 30.1016L207.59 38H203.699ZM214.258 38.2344C213.273 38.2344 212.391 38.0781 211.609 37.7656C210.828 37.4453 210.164 37.0039 209.617 36.4414C209.078 35.8789 208.664 35.2266 208.375 34.4844C208.086 33.7344 207.941 32.9375 207.941 32.0938V31.625C207.941 30.6641 208.078 29.7852 208.352 28.9883C208.625 28.1914 209.016 27.5 209.523 26.9141C210.039 26.3281 210.664 25.8789 211.398 25.5664C212.133 25.2461 212.961 25.0859 213.883 25.0859C214.781 25.0859 215.578 25.2344 216.273 25.5312C216.969 25.8281 217.551 26.25 218.02 26.7969C218.496 27.3438 218.855 28 219.098 28.7656C219.34 29.5234 219.461 30.3672 219.461 31.2969V32.7031H209.383V30.4531H216.145V30.1953C216.145 29.7266 216.059 29.3086 215.887 28.9414C215.723 28.5664 215.473 28.2695 215.137 28.0508C214.801 27.832 214.371 27.7227 213.848 27.7227C213.402 27.7227 213.02 27.8203 212.699 28.0156C212.379 28.2109 212.117 28.4844 211.914 28.8359C211.719 29.1875 211.57 29.6016 211.469 30.0781C211.375 30.5469 211.328 31.0625 211.328 31.625V32.0938C211.328 32.6016 211.398 33.0703 211.539 33.5C211.688 33.9297 211.895 34.3008 212.16 34.6133C212.434 34.9258 212.762 35.168 213.145 35.3398C213.535 35.5117 213.977 35.5977 214.469 35.5977C215.078 35.5977 215.645 35.4805 216.168 35.2461C216.699 35.0039 217.156 34.6406 217.539 34.1562L219.18 35.9375C218.914 36.3203 218.551 36.6875 218.09 37.0391C217.637 37.3906 217.09 37.6797 216.449 37.9062C215.809 38.125 215.078 38.2344 214.258 38.2344ZM227.594 25.3203V27.7109H220.211V25.3203H227.594ZM222.039 22.1914H225.414V34.1797C225.414 34.5469 225.461 34.8281 225.555 35.0234C225.656 35.2188 225.805 35.3555 226 35.4336C226.195 35.5039 226.441 35.5391 226.738 35.5391C226.949 35.5391 227.137 35.5312 227.301 35.5156C227.473 35.4922 227.617 35.4688 227.734 35.4453L227.746 37.9297C227.457 38.0234 227.145 38.0977 226.809 38.1523C226.473 38.207 226.102 38.2344 225.695 38.2344C224.953 38.2344 224.305 38.1133 223.75 37.8711C223.203 37.6211 222.781 37.2227 222.484 36.6758C222.188 36.1289 222.039 35.4102 222.039 34.5195V22.1914ZM236.371 34.4961C236.371 34.2539 236.301 34.0352 236.16 33.8398C236.02 33.6445 235.758 33.4648 235.375 33.3008C235 33.1289 234.457 32.9727 233.746 32.832C233.105 32.6914 232.508 32.5156 231.953 32.3047C231.406 32.0859 230.93 31.8242 230.523 31.5195C230.125 31.2148 229.812 30.8555 229.586 30.4414C229.359 30.0195 229.246 29.5391 229.246 29C229.246 28.4688 229.359 27.9688 229.586 27.5C229.82 27.0312 230.152 26.6172 230.582 26.2578C231.02 25.8906 231.551 25.6055 232.176 25.4023C232.809 25.1914 233.52 25.0859 234.309 25.0859C235.41 25.0859 236.355 25.2617 237.145 25.6133C237.941 25.9648 238.551 26.4492 238.973 27.0664C239.402 27.6758 239.617 28.3711 239.617 29.1523H236.242C236.242 28.8242 236.172 28.5312 236.031 28.2734C235.898 28.0078 235.688 27.8008 235.398 27.6523C235.117 27.4961 234.75 27.418 234.297 27.418C233.922 27.418 233.598 27.4844 233.324 27.6172C233.051 27.7422 232.84 27.9141 232.691 28.1328C232.551 28.3438 232.48 28.5781 232.48 28.8359C232.48 29.0312 232.52 29.207 232.598 29.3633C232.684 29.5117 232.82 29.6484 233.008 29.7734C233.195 29.8984 233.438 30.0156 233.734 30.125C234.039 30.2266 234.414 30.3203 234.859 30.4062C235.773 30.5938 236.59 30.8398 237.309 31.1445C238.027 31.4414 238.598 31.8477 239.02 32.3633C239.441 32.8711 239.652 33.5391 239.652 34.3672C239.652 34.9297 239.527 35.4453 239.277 35.9141C239.027 36.3828 238.668 36.793 238.199 37.1445C237.73 37.4883 237.168 37.7578 236.512 37.9531C235.863 38.1406 235.133 38.2344 234.32 38.2344C233.141 38.2344 232.141 38.0234 231.32 37.6016C230.508 37.1797 229.891 36.6445 229.469 35.9961C229.055 35.3398 228.848 34.668 228.848 33.9805H232.047C232.062 34.4414 232.18 34.8125 232.398 35.0938C232.625 35.375 232.91 35.5781 233.254 35.7031C233.605 35.8281 233.984 35.8906 234.391 35.8906C234.828 35.8906 235.191 35.832 235.48 35.7148C235.77 35.5898 235.988 35.4258 236.137 35.2227C236.293 35.0117 236.371 34.7695 236.371 34.4961Z" fill="white"/>
<defs>
<linearGradient id="paint0_linear_340_7524" x1="3.5" y1="4.01172" x2="44.7377" y2="4.69413" gradientUnits="userSpaceOnUse">
<stop stop-color="#FF83AE"/>
<stop offset="1" stop-color="#E6296B"/>
</linearGradient>
<linearGradient id="paint1_linear_340_7524" x1="0" y1="16" x2="48.2852" y2="16.5007" gradientUnits="userSpaceOnUse">
<stop stop-color="#FF83AE"/>
<stop offset="1" stop-color="#E6296B"/>
</linearGradient>
<linearGradient id="paint2_linear_340_7524" x1="16" y1="16.5" x2="19.0181" y2="16.511" gradientUnits="userSpaceOnUse">
<stop stop-color="#F76599"/>
<stop offset="1" stop-color="#F56094"/>
</linearGradient>
<linearGradient id="paint3_linear_340_7524" x1="16" y1="26" x2="19.0181" y2="26.0068" gradientUnits="userSpaceOnUse">
<stop stop-color="#F76599"/>
<stop offset="1" stop-color="#F56094"/>
</linearGradient>
<linearGradient id="paint4_linear_340_7524" x1="16" y1="38.5" x2="19.0181" y2="38.511" gradientUnits="userSpaceOnUse">
<stop stop-color="#F76599"/>
<stop offset="1" stop-color="#F56094"/>
</linearGradient>
</defs>
</svg>
