<svg width="379" height="220" viewBox="0 0 379 220" fill="none" xmlns="http://www.w3.org/2000/svg">
<rect width="378" height="220" transform="translate(0.666016)" fill="#DAF3A9"/>
<path d="M225.964 25.5084L225.164 25.9644C218.456 29.7964 214.288 36.9284 214.568 44.5764C214.604 45.5603 214.712 46.5403 214.892 47.5084C215.594 51.019 217.153 54.3018 219.429 57.0652C221.705 59.8286 224.629 61.9869 227.94 63.3484C231.856 64.9244 236.396 65.4564 239.46 68.3324C243.46 72.0764 243.412 78.2524 243.1 83.6764C242.788 89.1004 242.768 95.2764 246.772 99.0044C249.28 101.34 252.916 102.156 256.372 102.064C265.492 101.82 273.8 95.6924 278.06 87.7324C282.32 79.7724 282.932 70.2804 281.384 61.4044C279.2 48.9684 272.672 37.0244 262.284 29.6724C251.896 22.3204 237.532 20.1524 225.964 25.5084Z" fill="black" fill-opacity="0.1"/>
<path d="M150.825 167.2L151.769 166.944C159.725 164.784 165.945 158.544 167.709 150.544C167.933 149.518 168.084 148.476 168.161 147.428C168.377 143.612 167.647 139.801 166.036 136.335C164.425 132.869 161.982 129.855 158.925 127.56C155.305 124.88 150.753 123.112 148.357 119.32C145.241 114.38 146.933 108.008 148.713 102.488C150.493 96.9681 152.165 90.5881 149.029 85.6601C147.065 82.5761 143.529 80.7601 139.945 79.9321C130.461 77.7361 120.229 81.8401 113.693 88.9241C107.157 96.0081 103.977 105.656 103.201 115.244C102.105 128.672 105.657 142.768 114.421 153.152C123.185 163.536 137.437 169.628 150.825 167.2Z" fill="black" fill-opacity="0.1"/>
<path d="M264.052 148.607C269.789 142.871 269.789 133.571 264.052 127.835C258.316 122.099 249.017 122.099 243.281 127.835C237.544 133.571 237.544 142.871 243.281 148.607C249.017 154.343 258.316 154.343 264.052 148.607Z" fill="black" fill-opacity="0.1"/>
<path d="M278.137 199.244C278.137 199.304 238.673 199.348 190.005 199.348C141.337 199.348 101.865 199.304 101.865 199.244C101.865 199.184 141.321 199.14 190.005 199.14C238.689 199.14 278.137 199.2 278.137 199.244Z" fill="#263238"/>
<path d="M271.422 199.244C271.257 198.994 271.123 198.725 271.022 198.444C270.806 197.936 270.526 197.244 270.222 196.444C269.918 195.644 269.662 195.032 269.422 194.444C269.294 194.174 269.187 193.894 269.102 193.608C269.292 193.84 269.446 194.101 269.558 194.38C269.802 194.88 270.102 195.58 270.41 196.38C270.718 197.18 270.978 197.88 271.158 198.38C271.276 198.658 271.365 198.947 271.422 199.244Z" fill="#263238"/>
<path d="M273.259 199.324C273.199 199.324 272.995 197.992 272.623 196.36C272.251 194.728 271.863 193.432 271.919 193.412C272.067 193.672 272.18 193.95 272.255 194.24C272.431 194.764 272.655 195.496 272.827 196.316C272.999 197.136 273.135 197.888 273.203 198.432C273.261 198.725 273.28 199.025 273.259 199.324Z" fill="#263238"/>
<path d="M276.527 193.768C276.583 193.8 275.983 195 275.375 196.532C274.767 198.064 274.371 199.332 274.311 199.332C274.337 199.039 274.399 198.75 274.495 198.472C274.886 197.108 275.413 195.787 276.067 194.528C276.187 194.256 276.341 194.001 276.527 193.768Z" fill="#263238"/>
<path d="M180.35 199.244C179.422 197.89 178.609 196.461 177.918 194.972C178.85 196.323 179.663 197.753 180.35 199.244Z" fill="#263238"/>
<path d="M182.078 199.2C181.585 197.542 181.229 195.847 181.014 194.132C181.501 195.79 181.857 197.485 182.078 199.2Z" fill="#263238"/>
<path d="M185.72 194.676C185.374 195.477 184.962 196.247 184.488 196.98C184.077 197.748 183.604 198.482 183.076 199.176C183.423 198.377 183.835 197.607 184.308 196.876C184.722 196.107 185.194 195.372 185.72 194.676Z" fill="#263238"/>
<path d="M112.27 199.244C111.819 198.659 111.425 198.032 111.094 197.372C110.7 196.748 110.366 196.087 110.098 195.4C110.547 195.986 110.94 196.613 111.274 197.272C111.666 197.897 111.999 198.557 112.27 199.244Z" fill="#263238"/>
<path d="M113.234 193.04C113.456 194.06 113.613 195.092 113.702 196.132C113.859 197.162 113.945 198.202 113.958 199.244C113.581 197.194 113.339 195.122 113.234 193.04Z" fill="#263238"/>
<path d="M116.995 195.012C116.88 195.744 116.695 196.463 116.443 197.16C116.259 197.877 116.007 198.574 115.691 199.244C115.808 198.513 115.992 197.795 116.243 197.1C116.433 196.383 116.684 195.684 116.995 195.012Z" fill="#263238"/>
<path d="M146.686 186C146.986 186.143 147.254 186.344 147.474 186.593C147.694 186.842 147.862 187.133 147.966 187.448C148.172 188.081 148.23 188.753 148.138 189.412C147.99 190.688 147.266 191.972 146.49 192.992C145.414 192.056 145.17 190.42 145.094 189.584C144.978 188.26 145.574 185.8 146.694 185.984" fill="#455A64"/>
<path d="M147.735 195.076C147.661 194.712 147.686 194.335 147.806 193.983C147.926 193.632 148.138 193.319 148.419 193.076C148.702 192.838 149.031 192.658 149.384 192.547C149.738 192.437 150.11 192.398 150.479 192.432C150.65 192.428 150.82 192.462 150.977 192.531C151.134 192.601 151.274 192.703 151.387 192.832C151.468 192.971 151.511 193.129 151.511 193.29C151.511 193.451 151.468 193.609 151.387 193.748C151.225 194.026 150.991 194.255 150.711 194.412C149.783 194.996 148.775 195.388 147.723 195.072" fill="#455A64"/>
<path d="M146.357 198.984C146.364 198.896 146.378 198.809 146.397 198.724C146.429 198.54 146.473 198.3 146.525 198.016C146.646 197.228 146.893 196.465 147.257 195.756C147.636 195.047 148.196 194.452 148.881 194.032C149.089 193.908 149.31 193.81 149.541 193.74C149.604 193.719 149.668 193.703 149.733 193.692C149.777 193.692 149.797 193.692 149.801 193.692C149.492 193.793 149.194 193.927 148.913 194.092C148.253 194.521 147.711 195.11 147.337 195.804C146.981 196.506 146.729 197.257 146.589 198.032C146.525 198.328 146.473 198.568 146.433 198.736C146.419 198.822 146.393 198.905 146.357 198.984Z" fill="#263238"/>
<path d="M146.397 187.896C146.401 187.935 146.401 187.973 146.397 188.012L146.417 188.34C146.417 188.624 146.449 189.036 146.465 189.54C146.497 190.56 146.521 191.972 146.517 193.54C146.513 195.108 146.473 196.508 146.429 197.54C146.409 198.052 146.389 198.464 146.369 198.74C146.369 198.872 146.369 198.98 146.349 199.068C146.353 199.105 146.353 199.143 146.349 199.18C146.345 199.141 146.345 199.103 146.349 199.064C146.349 198.98 146.349 198.872 146.349 198.736C146.349 198.44 146.369 198.028 146.381 197.536C146.405 196.516 146.433 195.104 146.441 193.536C146.449 191.968 146.441 190.568 146.413 189.536C146.413 189.036 146.413 188.624 146.413 188.336V188C146.397 187.936 146.397 187.896 146.397 187.896Z" fill="#263238"/>
<path d="M145.878 195.852C145.748 195.081 145.436 194.353 144.969 193.727C144.501 193.102 143.892 192.596 143.19 192.252C142.83 192.08 142.362 191.968 142.066 192.252C141.77 192.536 141.838 192.996 141.982 193.368C142.298 194.137 142.834 194.796 143.523 195.261C144.212 195.727 145.023 195.978 145.854 195.984" fill="#455A64"/>
<path d="M143.361 193.452C143.441 193.477 143.517 193.511 143.589 193.552C143.678 193.591 143.763 193.637 143.845 193.688C143.958 193.752 144.068 193.821 144.173 193.896C144.304 193.982 144.43 194.075 144.549 194.176C144.69 194.29 144.823 194.411 144.949 194.54C145.237 194.835 145.491 195.161 145.705 195.512C145.913 195.869 146.081 196.247 146.205 196.64C146.258 196.812 146.3 196.987 146.329 197.164C146.361 197.317 146.382 197.472 146.393 197.628C146.401 197.761 146.401 197.895 146.393 198.028C146.393 198.14 146.393 198.24 146.393 198.32C146.391 198.403 146.381 198.486 146.365 198.568C146.365 198.568 146.365 198.212 146.317 197.648C146.3 197.495 146.275 197.343 146.241 197.192C146.207 197.019 146.163 196.848 146.109 196.68C145.985 196.294 145.819 195.922 145.613 195.572C145.402 195.227 145.154 194.905 144.873 194.612C144.748 194.482 144.615 194.36 144.473 194.248C144.359 194.146 144.239 194.049 144.113 193.96C143.673 193.6 143.353 193.472 143.361 193.452Z" fill="#263238"/>
<path d="M254.73 182.152C255.126 182.341 255.479 182.609 255.769 182.938C256.059 183.267 256.28 183.651 256.418 184.068C256.691 184.903 256.769 185.79 256.646 186.66C256.454 188.344 255.498 190.044 254.466 191.388C253.05 190.152 252.726 187.992 252.626 186.888C252.474 185.144 253.258 181.892 254.73 182.152Z" fill="#455A64"/>
<path d="M256.115 194.164C256.021 193.683 256.054 193.186 256.212 192.722C256.37 192.258 256.647 191.844 257.015 191.52C257.39 191.205 257.824 190.967 258.292 190.821C258.759 190.675 259.251 190.623 259.739 190.668C259.966 190.665 260.192 190.712 260.399 190.805C260.606 190.898 260.791 191.036 260.939 191.208C261.047 191.389 261.106 191.595 261.11 191.805C261.113 192.016 261.061 192.224 260.959 192.408C260.745 192.775 260.437 193.079 260.067 193.288C258.839 194.06 257.507 194.58 256.119 194.16" fill="#455A64"/>
<path d="M254.297 199.323C254.305 199.208 254.322 199.092 254.349 198.979L254.517 198.043C254.678 197.003 255.005 195.996 255.485 195.059C255.983 194.124 256.722 193.338 257.625 192.783C257.9 192.616 258.194 192.481 258.501 192.383C258.584 192.358 258.668 192.337 258.753 192.319C258.782 192.314 258.812 192.314 258.841 192.319C258.139 192.546 257.49 192.91 256.932 193.391C256.373 193.872 255.917 194.459 255.589 195.119C255.117 196.047 254.786 197.039 254.605 198.063C254.517 198.463 254.449 198.771 254.393 198.991C254.373 199.105 254.341 199.217 254.297 199.323Z" fill="#263238"/>
<path d="M254.35 184.68C254.363 184.729 254.369 184.78 254.37 184.832C254.37 184.944 254.378 185.088 254.394 185.264C254.414 185.64 254.438 186.188 254.458 186.864C254.502 188.216 254.534 190.064 254.526 192.136C254.518 194.208 254.466 196.06 254.414 197.408C254.386 198.084 254.358 198.628 254.334 199.008C254.334 199.184 254.334 199.328 254.306 199.44C254.312 199.49 254.312 199.541 254.306 199.592C254.302 199.541 254.302 199.49 254.306 199.44C254.306 199.328 254.306 199.184 254.306 199.008C254.306 198.608 254.33 198.072 254.346 197.408C254.378 196.06 254.414 194.208 254.426 192.14C254.438 190.072 254.426 188.22 254.39 186.872C254.39 186.208 254.39 185.672 254.366 185.272C254.366 185.092 254.366 184.948 254.366 184.836C254.357 184.784 254.352 184.732 254.35 184.68Z" fill="#263238"/>
<path d="M253.661 195.2C253.492 194.18 253.081 193.214 252.463 192.385C251.846 191.556 251.038 190.886 250.109 190.432C249.633 190.204 249.017 190.056 248.625 190.408C248.233 190.76 248.325 191.392 248.513 191.884C248.93 192.9 249.638 193.771 250.548 194.385C251.459 194.999 252.531 195.33 253.629 195.336" fill="#455A64"/>
<path d="M250.338 192.02C250.443 192.051 250.544 192.094 250.638 192.148C250.754 192.204 250.868 192.265 250.978 192.332C251.127 192.414 251.272 192.505 251.41 192.604C251.583 192.718 251.748 192.842 251.906 192.976C252.091 193.125 252.267 193.283 252.434 193.452C253.205 194.229 253.775 195.181 254.094 196.228C254.163 196.457 254.219 196.689 254.262 196.924C254.302 197.126 254.33 197.331 254.346 197.536C254.37 197.724 254.346 197.896 254.37 198.048C254.377 198.181 254.377 198.315 254.37 198.448C254.368 198.557 254.356 198.665 254.334 198.772C254.306 198.772 254.354 198.304 254.27 197.572C254.246 197.388 254.222 197.172 254.174 196.968C254.126 196.764 254.066 196.528 253.998 196.292C253.833 195.783 253.613 195.293 253.342 194.832C253.061 194.376 252.734 193.949 252.366 193.56C252.204 193.392 252.033 193.231 251.854 193.08C251.69 192.932 251.522 192.812 251.374 192.7C250.754 192.236 250.326 192.044 250.338 192.02Z" fill="#263238"/>
<path d="M257.824 46.0643C257.824 46.0643 257.532 45.9643 256.992 45.8443C256.229 45.6762 255.442 45.6464 254.668 45.7563C253.521 45.907 252.438 46.3737 251.54 47.1043C250.439 48.0005 249.662 49.2327 249.328 50.6123V50.6523L249.264 50.9003L249.168 50.6643C248.629 49.3557 247.708 48.2404 246.524 47.4643C245.552 46.8402 244.437 46.474 243.284 46.4003C242.508 46.3446 241.729 46.4162 240.976 46.6123C240.444 46.7523 240.176 46.8763 240.156 46.8603C240.219 46.8213 240.286 46.7891 240.356 46.7643C240.553 46.6793 240.754 46.6072 240.96 46.5483C241.903 46.2711 242.894 46.1991 243.867 46.3371C244.84 46.4751 245.772 46.8199 246.6 47.3483C247.819 48.1303 248.767 49.2686 249.316 50.6083H249.156V50.5683C249.497 49.15 250.297 47.8842 251.432 46.9683C252.352 46.2282 253.46 45.7612 254.632 45.6203C255.42 45.5218 256.219 45.5706 256.988 45.7643C257.196 45.8146 257.401 45.8787 257.6 45.9563C257.678 45.986 257.753 46.0221 257.824 46.0643Z" fill="#263238"/>
<path d="M260.105 30.6959C260.105 30.6959 259.941 30.6479 259.645 30.5879C259.226 30.5032 258.796 30.491 258.373 30.5519C257.748 30.636 257.159 30.8938 256.673 31.2959C256.074 31.7832 255.653 32.4535 255.473 33.2039V33.2239L255.409 33.4759L255.313 33.2399C255.021 32.5269 254.52 31.919 253.877 31.4959C253.349 31.1537 252.744 30.9501 252.117 30.9039C251.693 30.8694 251.266 30.9045 250.853 31.0079C250.557 31.0799 250.401 31.1439 250.397 31.1279C250.393 31.1119 250.433 31.1039 250.505 31.0679C250.611 31.018 250.72 30.9765 250.833 30.9439C251.251 30.8143 251.688 30.7601 252.125 30.7839C252.777 30.8147 253.41 31.016 253.961 31.3679C254.637 31.8012 255.164 32.4325 255.469 33.1759H255.309C255.497 32.3875 255.941 31.684 256.573 31.1759C257.002 30.8359 257.504 30.6003 258.04 30.4879C258.576 30.3754 259.131 30.3891 259.661 30.5279C259.775 30.5578 259.887 30.5952 259.997 30.6399C260.069 30.6719 260.109 30.6879 260.105 30.6959Z" fill="#263238"/>
<path d="M234.068 29.7363C234.068 29.7363 233.908 29.9163 233.62 30.2403C233.217 30.6996 232.853 31.192 232.532 31.7123C231.463 33.4307 230.901 35.4164 230.912 37.4403V37.5123H230.744C230.435 35.5277 229.51 33.6904 228.1 32.2603C227.679 31.8256 227.217 31.4331 226.72 31.0883C226.368 30.8443 226.164 30.7203 226.172 30.6883C226.227 30.7046 226.28 30.7288 226.328 30.7603C226.424 30.8203 226.576 30.8923 226.756 31.0123C227.273 31.3409 227.753 31.7245 228.188 32.1563C228.839 32.7918 229.393 33.5196 229.832 34.3163C230.377 35.2941 230.743 36.3616 230.912 37.4683H230.744V37.4403C230.731 35.387 231.316 33.3743 232.428 31.6483C232.762 31.129 233.145 30.6428 233.572 30.1963C233.72 30.0363 233.848 29.9283 233.932 29.8483C233.971 29.8041 234.017 29.7664 234.068 29.7363Z" fill="#263238"/>
<path d="M152.179 126.799C152.179 126.855 146.579 126.903 139.699 126.903C132.819 126.903 127.199 126.859 127.199 126.799C127.199 126.739 132.799 126.695 139.683 126.695C146.567 126.695 152.179 126.743 152.179 126.799Z" fill="#263238"/>
<path d="M144.7 123.639C144.7 123.695 139.1 123.743 132.22 123.743C125.34 123.743 119.736 123.695 119.736 123.639C119.736 123.583 125.336 123.535 132.22 123.535C139.104 123.535 144.7 123.599 144.7 123.639Z" fill="#263238"/>
<path d="M207.773 175.159C207.773 175.215 204.545 175.263 200.573 175.263C196.601 175.263 193.373 175.215 193.373 175.159C193.373 175.103 196.597 175.055 200.573 175.055C204.549 175.055 207.773 175.103 207.773 175.159Z" fill="#263238"/>
<path d="M203.457 171.999C203.457 172.059 200.229 172.103 196.257 172.103C192.285 172.103 189.057 172.059 189.057 171.999C189.057 171.939 192.281 171.895 196.257 171.895C200.233 171.895 203.457 171.939 203.457 171.999Z" fill="#263238"/>
<path d="M125.208 44.8117C128.446 44.8117 131.072 42.1863 131.072 38.9477C131.072 35.7091 128.446 33.0837 125.208 33.0837C121.969 33.0837 119.344 35.7091 119.344 38.9477C119.344 42.1863 121.969 44.8117 125.208 44.8117Z" fill="#9AC448"/>
<path d="M125.2 44.7999C124.044 44.7986 122.915 44.4563 121.953 43.8159C120.991 43.1755 120.239 42.2655 119.792 41.1999C119.488 40.476 119.332 39.6988 119.332 38.9139C119.332 38.1289 119.488 37.3518 119.792 36.6279C120.094 35.9444 120.523 35.3242 121.056 34.7999C122.158 33.6997 123.651 33.0818 125.208 33.0818C126.765 33.0818 128.258 33.6997 129.36 34.7999C129.893 35.3355 130.32 35.9682 130.616 36.6639C130.99 37.5561 131.137 38.5269 131.045 39.4899C130.953 40.4529 130.625 41.3782 130.089 42.1835C129.553 42.9888 128.826 43.6491 127.973 44.1055C127.12 44.562 126.167 44.8005 125.2 44.7999Z" fill="#9AC448"/>
<path d="M124.373 52.0561C124.341 52.0561 124.312 50.9761 124.312 49.6561C124.312 48.3361 124.341 47.2561 124.373 47.2561C124.436 48.0544 124.457 48.8555 124.436 49.6561C124.458 50.4567 124.436 51.2578 124.373 52.0561Z" fill="#9AC448"/>
<path d="M124.37 52.0641C124.37 52.0641 124.338 52.0641 124.322 51.3481C124.322 50.8921 124.322 50.2841 124.322 49.6401C124.322 48.9961 124.322 48.3841 124.322 47.9281C124.322 47.2161 124.358 47.2161 124.37 47.2161C124.382 47.2161 124.402 47.2161 124.422 47.9281C124.422 48.3841 124.422 48.9921 124.422 49.6401C124.422 50.2881 124.422 50.8921 124.422 51.3481C124.398 52.0641 124.398 52.0641 124.37 52.0641ZM124.37 47.2321C124.342 47.3201 124.314 48.2401 124.314 49.6321C124.314 51.0241 124.342 51.9481 124.37 52.0321C124.398 51.9401 124.426 51.0241 124.426 49.6321C124.426 48.2401 124.398 47.3201 124.37 47.2321Z" fill="#9AC448"/>
<path d="M120.992 45.8559C120.621 46.6283 120.211 47.3813 119.764 48.1119C119.052 49.3439 118.452 50.3239 118.424 50.3079C118.796 49.5355 119.207 48.7826 119.656 48.0519C120.364 46.8239 120.964 45.8399 120.992 45.8559Z" fill="#9AC448"/>
<path d="M118.424 50.3161C118.424 50.3161 118.396 50.3161 118.76 49.6361C118.992 49.2081 119.312 48.6481 119.652 48.0361C119.992 47.4241 120.324 46.8881 120.58 46.4721C120.936 45.8881 120.98 45.8401 120.98 45.8401C120.98 45.8401 121.008 45.8401 120.644 46.5201C120.412 46.9481 120.096 47.5121 119.752 48.1201C119.144 49.1761 118.464 50.3041 118.412 50.3201L118.424 50.3161ZM120.988 45.8681C120.916 45.9361 120.404 46.7681 119.66 48.0561C118.916 49.3441 118.46 50.2001 118.428 50.3001C118.5 50.2281 119.012 49.4001 119.756 48.1121C120.5 46.8241 120.964 45.9641 120.988 45.8681Z" fill="#9AC448"/>
<path d="M117.525 43.696C117.098 44.118 116.641 44.5083 116.157 44.864C115.701 45.2547 115.219 45.6129 114.713 45.936C115.141 45.5154 115.598 45.1251 116.081 44.768C116.539 44.3805 117.021 44.0224 117.525 43.696Z" fill="#9AC448"/>
<path d="M114.713 45.944C114.713 45.944 114.713 45.92 115.113 45.572C115.373 45.352 115.721 45.068 116.097 44.772C116.556 44.384 117.04 44.0259 117.545 43.7C117.113 44.1184 116.655 44.5085 116.173 44.868C115.797 45.168 115.441 45.444 115.165 45.668C115.027 45.7796 114.875 45.8724 114.713 45.944ZM117.513 43.704C117.014 44.0316 116.534 44.3882 116.077 44.772C115.6 45.1329 115.143 45.5201 114.709 45.932C115.209 45.6038 115.688 45.2458 116.145 44.86C116.625 44.5009 117.084 44.1149 117.521 43.704H117.513Z" fill="#9AC448"/>
<path d="M130.224 49.6761C130.153 49.4831 130.101 49.2834 130.068 49.0801C129.984 48.7121 129.864 48.2041 129.712 47.6441C129.56 47.0841 129.412 46.5881 129.312 46.2241C129.24 46.0321 129.185 45.834 129.148 45.6321C129.251 45.8106 129.334 45.9997 129.396 46.1961C129.528 46.5521 129.696 47.0521 129.844 47.6121C129.976 48.0903 130.083 48.5749 130.164 49.0641C130.207 49.2652 130.227 49.4705 130.224 49.6761Z" fill="#9AC448"/>
<path d="M130.219 49.6797C130.219 49.6797 130.175 49.5917 130.059 49.0797C129.983 48.7357 129.859 48.2157 129.707 47.6477C129.555 47.0797 129.395 46.5597 129.307 46.2277C129.159 45.7477 129.127 45.6436 129.147 45.6356C129.167 45.6276 129.147 45.6357 129.235 45.7837C129.323 45.9317 129.343 46.0397 129.403 46.1837C129.495 46.4237 129.675 46.9317 129.855 47.5997C130.035 48.2677 130.131 48.7997 130.175 49.0477C130.219 49.25 130.242 49.4565 130.243 49.6637L130.219 49.6797ZM129.139 45.6437C129.183 45.8371 129.238 46.0281 129.303 46.2157C129.407 46.5477 129.563 47.0557 129.703 47.6357C129.843 48.2157 129.979 48.7277 130.055 49.0717C130.131 49.4157 130.183 49.6197 130.203 49.6557C130.194 49.4541 130.17 49.2536 130.131 49.0557C130.087 48.7997 129.991 48.2557 129.811 47.6077C129.631 46.9597 129.451 46.4317 129.359 46.1917C129.3 46.0033 129.227 45.8201 129.139 45.6437Z" fill="#9AC448"/>
<path d="M136.169 45.4559C135.567 45.0085 134.989 44.5305 134.437 44.0238C133.864 43.5444 133.318 43.0343 132.801 42.4958C133.404 42.9409 133.982 43.4189 134.533 43.9279C135.106 44.406 135.653 44.9162 136.169 45.4559Z" fill="#9AC448"/>
<path d="M136.168 45.4597C135.565 45.0125 134.986 44.5345 134.432 44.0277C133.98 43.6277 133.56 43.2557 133.232 42.9677C132.744 42.5157 132.756 42.4997 132.764 42.4917C132.824 42.4917 133.7 43.2317 134.496 43.9277C134.948 44.3277 135.372 44.6997 135.696 44.9877C136.184 45.4397 136.168 45.4557 136.16 45.4637L136.168 45.4597ZM132.8 42.5037C132.844 42.5757 133.468 43.1597 134.448 44.0157C135.428 44.8717 136.092 45.4157 136.168 45.4477C136.128 45.3717 135.5 44.7917 134.52 43.9317C133.54 43.0717 132.872 42.5357 132.8 42.5037Z" fill="#9AC448"/>
<path d="M138.447 39.6555C138.209 39.6386 137.972 39.6039 137.739 39.5515C137.303 39.4795 136.703 39.3875 136.039 39.3115C135.375 39.2355 134.763 39.1915 134.323 39.1635C134.085 39.1617 133.847 39.1403 133.611 39.0995C133.849 39.067 134.088 39.059 134.327 39.0755C134.904 39.084 135.479 39.1214 136.051 39.1875C136.723 39.2675 137.323 39.3715 137.755 39.4675C137.992 39.5073 138.223 39.5702 138.447 39.6555Z" fill="#9AC448"/>
<path d="M138.427 39.6638C138.375 39.6638 138.231 39.6398 137.879 39.5838L137.739 39.5598C137.143 39.4598 136.571 39.3798 136.035 39.3158C135.499 39.2518 134.927 39.2078 134.323 39.1678H134.183C133.703 39.1358 133.607 39.1278 133.607 39.1078C133.845 39.0763 134.084 39.0669 134.323 39.0798C134.9 39.0894 135.475 39.1281 136.047 39.1958C136.62 39.2597 137.189 39.3531 137.751 39.4758C137.989 39.5159 138.222 39.5789 138.447 39.6638C138.447 39.6638 138.443 39.6638 138.427 39.6638ZM133.627 39.0998C133.814 39.1257 134.003 39.1417 134.191 39.1478H134.331C134.935 39.1878 135.531 39.2358 136.043 39.2958C136.555 39.3558 137.151 39.4398 137.743 39.5398L137.883 39.5638C138.167 39.6118 138.379 39.6438 138.431 39.6438C138.209 39.5697 137.982 39.5109 137.751 39.4678C137.189 39.3451 136.62 39.2517 136.047 39.1878C135.475 39.1202 134.9 39.0815 134.323 39.0718C134.09 39.0659 133.856 39.0753 133.623 39.0998H133.627Z" fill="#9AC448"/>
<path d="M138.458 33.9517C138.458 33.9837 137.194 34.3237 135.622 34.7077C134.05 35.0917 132.766 35.3717 132.758 35.3397C132.75 35.3077 134.018 34.9717 135.594 34.5877C137.17 34.2037 138.45 33.9197 138.458 33.9517Z" fill="#9AC448"/>
<path d="M132.768 35.3477C132.768 35.3477 132.768 35.3157 133.596 35.0917C134.132 34.9517 134.848 34.7717 135.596 34.5837C136.344 34.3957 137.076 34.2317 137.596 34.1117C138.44 33.9237 138.448 33.9437 138.448 33.9557C138.448 33.9557 138.448 33.9837 137.62 34.2077C137.084 34.3517 136.372 34.5317 135.62 34.7157C134.868 34.8997 134.144 35.0677 133.62 35.1877C133.34 35.2602 133.055 35.3137 132.768 35.3477ZM138.44 33.9557C138.324 33.9557 137.24 34.1917 135.592 34.5917C133.944 34.9917 132.872 35.2837 132.768 35.3357C132.884 35.3357 133.968 35.1037 135.62 34.6997C137.272 34.2957 138.34 33.9997 138.44 33.9557Z" fill="#9AC448"/>
<path d="M131.829 27.3077C131.413 28.0513 130.961 28.7735 130.473 29.4717C129.697 30.6477 129.041 31.5877 129.013 31.5677C128.985 31.5477 129.593 30.5797 130.369 29.4037C131.145 28.2277 131.801 27.2877 131.829 27.3077Z" fill="#9AC448"/>
<path d="M129.012 31.5717C129.012 31.5157 129.7 30.4117 130.368 29.4037C130.744 28.8357 131.104 28.3037 131.38 27.9077C131.804 27.2997 131.828 27.2997 131.836 27.3077C131.836 27.3077 131.864 27.3077 131.464 27.9637C131.204 28.3637 130.856 28.9117 130.48 29.4797C130.104 30.0477 129.748 30.5797 129.472 30.9757C129.08 31.5237 129.028 31.5717 129.012 31.5717ZM131.812 27.3157C131.736 27.3837 131.176 28.1757 130.364 29.4077C129.552 30.6397 129.036 31.4637 129.008 31.5557C129.084 31.4917 129.64 30.6997 130.456 29.4677C131.272 28.2357 131.792 27.4117 131.824 27.3157H131.812Z" fill="#9AC448"/>
<path d="M125.253 25.9197C125.273 26.1859 125.273 26.4534 125.253 26.7197C125.253 27.2157 125.253 27.9197 125.253 28.6597C125.253 29.3997 125.253 30.1037 125.277 30.5997C125.295 30.866 125.295 31.1333 125.277 31.3997C125.226 31.1359 125.2 30.8682 125.197 30.5997C125.165 30.1037 125.141 29.3997 125.141 28.6557C125.141 27.9117 125.141 27.2117 125.193 26.7117C125.191 26.4465 125.211 26.1816 125.253 25.9197Z" fill="#9AC448"/>
<path d="M125.261 31.4159C125.261 31.4159 125.241 31.4159 125.221 31.1959C125.201 30.9759 125.189 30.8439 125.173 30.6079C125.153 30.2719 125.117 29.5759 125.117 28.6639C125.117 27.7519 125.149 27.0639 125.169 26.7199C125.169 26.4839 125.197 26.2839 125.213 26.1319C125.229 25.9799 125.245 25.9119 125.253 25.9119C125.273 25.9119 125.281 25.9879 125.253 26.7119C125.253 27.1799 125.253 27.8879 125.253 28.6519C125.253 29.4159 125.253 30.0679 125.273 30.5599V30.5919C125.273 31.3279 125.273 31.3919 125.273 31.3919L125.261 31.4159ZM125.261 25.9319C125.222 26.197 125.198 26.4641 125.189 26.7319C125.189 27.0639 125.137 27.7639 125.137 28.6719C125.137 29.5799 125.173 30.2719 125.193 30.6159C125.202 30.8838 125.228 31.151 125.269 31.4159C125.269 31.3479 125.269 30.9159 125.269 30.6159V30.5839C125.269 30.0919 125.249 29.4159 125.249 28.6759C125.249 27.9359 125.249 27.2039 125.249 26.7359C125.261 26.4319 125.269 25.9999 125.253 25.9319H125.261Z" fill="#9AC448"/>
<path d="M120.272 32.12C120.244 32.14 119.628 31.18 118.896 29.984C118.164 28.788 117.6 27.796 117.62 27.78C117.64 27.764 118.268 28.72 119 29.92C119.46 30.6315 119.885 31.3657 120.272 32.12Z" fill="#9AC448"/>
<path d="M120.272 32.1278C120.272 32.1278 120.208 32.0798 119.844 31.5118C119.584 31.1118 119.244 30.5638 118.888 29.9838C118.26 28.9558 117.6 27.8358 117.6 27.7798C117.6 27.7798 117.628 27.7798 118.036 28.3958C118.296 28.7958 118.636 29.3438 118.988 29.9238C119.34 30.5038 119.672 31.0518 119.912 31.4678C120.288 32.1198 120.272 32.1278 120.26 32.1358L120.272 32.1278ZM117.628 27.7878C117.652 27.8838 118.132 28.7238 118.9 29.9798C119.668 31.2358 120.196 32.0438 120.268 32.1118C120.24 32.0158 119.764 31.1758 118.996 29.9198C118.228 28.6638 117.7 27.8558 117.628 27.7878Z" fill="#9AC448"/>
<path d="M117.299 34.6478C117.088 34.6394 116.879 34.6072 116.675 34.5518C116.275 34.4718 115.771 34.3438 115.199 34.1758C114.627 34.0078 114.119 33.8278 113.759 33.6918C113.564 33.6257 113.377 33.54 113.199 33.4358C113.407 33.4736 113.61 33.5312 113.807 33.6078C114.175 33.7278 114.687 33.8878 115.255 34.0558C115.823 34.2238 116.339 34.3638 116.715 34.4558C116.915 34.5045 117.11 34.5687 117.299 34.6478Z" fill="#9AC448"/>
<path d="M117.281 34.6602H117.129C117.013 34.6602 116.857 34.6122 116.677 34.5722C116.417 34.5202 115.877 34.3962 115.201 34.1962C114.525 33.9962 114.001 33.7962 113.757 33.7122L113.329 33.5362C113.169 33.4682 113.173 33.4562 113.177 33.4482C113.181 33.4402 113.265 33.4482 113.789 33.6162C114.085 33.7122 114.637 33.8882 115.237 34.0682C115.837 34.2482 116.277 34.3642 116.697 34.4682C117.233 34.6122 117.309 34.6402 117.305 34.6602C117.305 34.6602 117.305 34.6602 117.281 34.6602ZM113.201 33.4402C113.384 33.5362 113.574 33.6178 113.769 33.6842C114.017 33.7802 114.529 33.9682 115.213 34.1682C115.897 34.3682 116.413 34.4922 116.685 34.5442C116.884 34.5936 117.085 34.6283 117.289 34.6482C117.095 34.5794 116.897 34.5207 116.697 34.4722C116.297 34.3602 115.781 34.2242 115.237 34.0722C114.693 33.9202 114.081 33.7082 113.785 33.6002C113.553 33.5402 113.241 33.4402 113.201 33.4402Z" fill="#9AC448"/>
<path d="M116 39.1562C115.382 39.2749 114.757 39.355 114.128 39.3962C113.503 39.4759 112.874 39.516 112.244 39.5162C112.862 39.3929 113.487 39.3114 114.116 39.2722C114.741 39.1901 115.37 39.1513 116 39.1562Z" fill="#9AC448"/>
<path d="M112.352 39.532C112.316 39.5369 112.28 39.5369 112.244 39.532C112.864 39.4144 113.491 39.3343 114.12 39.292C114.747 39.2146 115.377 39.1745 116.008 39.172C115.388 39.29 114.762 39.3715 114.132 39.416C113.408 39.472 112.636 39.532 112.352 39.532ZM112.256 39.532C112.882 39.5244 113.507 39.483 114.128 39.408C114.756 39.3561 115.381 39.272 116 39.156C115.373 39.1636 114.747 39.205 114.124 39.28C113.497 39.3213 112.874 39.4001 112.256 39.516V39.532Z" fill="#9AC448"/>
<path d="M218.721 187.98L221.685 195.632L228.209 194.1L229.645 190.6L227.437 183.344L218.721 187.98Z" fill="#FFBF9D"/>
<path d="M229.978 189.7L230.21 190.28C230.21 190.28 241.81 190.28 242.646 192.124L222.69 199.856L220.426 193.224C223.918 193.424 227.082 192.372 229.978 189.7Z" fill="#455A64"/>
<g opacity="0.6">
<path d="M223.253 194.528C223.085 194.657 222.971 194.845 222.932 195.054C222.894 195.263 222.934 195.479 223.045 195.66C223.174 195.831 223.363 195.947 223.574 195.984C223.785 196.021 224.002 195.977 224.181 195.86C224.361 195.723 224.482 195.523 224.521 195.301C224.561 195.079 224.515 194.85 224.393 194.66C224.241 194.496 224.032 194.396 223.809 194.381C223.586 194.366 223.366 194.437 223.193 194.58" fill="white"/>
</g>
<g opacity="0.6">
<path d="M222.689 199.855L222.145 198.255L241.473 191.427C241.473 191.427 242.509 191.463 242.645 192.119L222.689 199.855Z" fill="white"/>
</g>
<path d="M230.302 190.308C230.334 190.404 229.862 190.636 229.502 191.132C229.142 191.628 229.042 192.124 228.938 192.124C228.834 192.124 228.762 191.508 229.21 190.924C229.658 190.34 230.286 190.212 230.302 190.308Z" fill="#263238"/>
<path d="M232.726 190.348C232.782 190.432 232.422 190.748 232.25 191.292C232.078 191.836 232.146 192.292 232.05 192.324C231.954 192.356 231.678 191.84 231.906 191.18C232.134 190.52 232.686 190.256 232.726 190.348Z" fill="#263238"/>
<path d="M234.872 192.348C234.792 192.404 234.472 191.976 234.516 191.356C234.56 190.736 234.936 190.348 235.008 190.412C235.08 190.476 234.908 190.868 234.88 191.376C234.852 191.884 234.964 192.304 234.872 192.348Z" fill="#263238"/>
<path d="M193.893 140.092C194.065 140.548 204.769 152.492 207.153 155.972C209.849 159.908 210.417 163.236 210.549 164.016C211.293 168.476 211.849 171.616 213.873 176.476C215.897 181.336 219.893 191.6 219.893 191.6L229.345 189.164C229.345 189.164 223.773 165.388 223.269 161.428C222.765 157.468 221.917 154.4 219.721 150.76C217.525 147.12 207.837 127.252 207.837 127.252L192.525 133.688L193.893 140.092Z" fill="#263238"/>
<path d="M187.029 106.304C187.029 106.304 190.125 106.348 190.581 106.632C191.037 106.916 192.857 108.316 192.857 108.632C192.855 108.824 192.899 109.013 192.985 109.184C192.985 109.184 194.129 110.784 193.613 111.468C193.097 112.152 192.717 112.376 192.729 112.588C192.741 112.8 192.577 113.536 192.141 113.736C191.72 113.919 191.331 114.167 190.989 114.472C190.794 114.775 190.561 115.052 190.297 115.296C189.987 115.491 189.654 115.646 189.305 115.756C189.207 115.943 189.061 116.1 188.881 116.211C188.702 116.322 188.496 116.381 188.285 116.384C187.629 116.324 186.433 115.076 186.045 114.612C185.561 114.032 184.329 113.012 184.169 112.496C184.072 112.18 183.949 111.872 183.801 111.576L180.801 108.74L185.481 104.04L187.029 106.304Z" fill="#FFBF9D"/>
<path d="M193.083 109.44C192.73 109.16 192.401 108.851 192.099 108.516C191.751 108.23 191.428 107.914 191.135 107.572C191.953 107.991 192.63 108.64 193.083 109.44Z" fill="#FF9A6C"/>
<path d="M185.387 74.7358C185.387 74.7358 181.827 77.7518 180.987 78.5078C180.147 79.2638 169.203 88.4558 168.471 92.6158C168.007 95.2798 170.071 97.3638 171.179 99.1118C171.979 100.416 176.907 109.376 181.511 109.636C181.783 109.636 183.171 111.348 183.171 111.348L188.167 107.088C187.463 106.207 186.83 105.27 186.275 104.288C184.275 100.536 179.919 94.6878 180.055 94.4238C181.027 92.6038 178.719 93.0358 178.719 93.0358L188.295 84.2558L185.387 74.7358Z" fill="#9AC448"/>
<path d="M169.558 89.8559C169.558 89.8559 168.866 88.6199 169.558 87.5879C170.25 86.5559 180.002 78.6719 180.002 78.6719C180.002 78.6719 180.478 78.7959 180.826 79.5799C181.174 80.3639 170.026 90.2279 170.026 90.2279L169.558 89.8559Z" fill="#263238"/>
<path d="M172.965 86.9281C172.965 86.9281 178.565 93.2441 179.365 93.0361C180.165 92.8281 184.045 89.9001 184.221 88.9481C184.397 87.9961 178.889 81.3481 178.889 81.3481L172.965 86.9281Z" fill="#263238"/>
<path d="M165.031 46.732C166.259 47.024 167.219 48.016 168.343 48.628C170.451 49.772 173.007 49.468 175.015 48.536C177.023 47.604 178.655 46.136 180.459 44.896C182.263 43.656 183.695 42.408 186.299 42.172C190.895 41.772 195.499 45.816 193.411 49.252L189.551 50.6C187.747 55.9927 184.092 60.5726 179.235 63.528C178.267 64.116 177.171 64.66 175.967 64.508C174.763 64.356 173.539 63.208 173.795 62.108C171.883 62.508 169.915 62.876 167.915 62.576C165.915 62.276 163.839 61.16 162.951 59.376C162.063 57.592 162.847 55.184 164.775 54.836C162.995 53.744 161.471 51.964 161.359 50.036C161.247 48.108 163.031 46.256 165.031 46.732Z" fill="#263238"/>
<path d="M203.385 38.996C200.897 38.32 198.585 39.08 196.301 40.296C193.982 41.6097 192.119 43.599 190.959 45.9987C189.799 48.3984 189.398 51.0946 189.809 53.728C190.048 55.0694 190.556 56.3486 191.303 57.4884C192.049 58.6282 193.019 59.605 194.153 60.36C197.285 62.36 201.553 62.176 204.713 60.236C207.873 58.296 209.913 54.776 210.421 51.1C210.805 48.5534 210.378 45.9507 209.201 43.66C208.604 42.5254 207.78 41.5259 206.78 40.7235C205.781 39.9211 204.626 39.3331 203.389 38.996" fill="#263238"/>
<path d="M195.349 46.9041C195.813 45.9721 195.773 44.8761 196.021 43.8641C196.565 41.6361 197.597 39.6641 199.789 38.9881C201.829 38.3601 205.169 39.1081 207.453 40.1001C209.044 40.7561 210.415 41.8523 211.405 43.2601C212.029 44.2112 212.417 45.2977 212.536 46.4291C212.655 47.5605 212.502 48.704 212.089 49.7641L200.689 46.9641C199.521 47.7641 198.321 48.5641 196.961 48.9281C196.565 49.0597 196.142 49.0859 195.733 49.0041C195.531 48.9596 195.346 48.8579 195.2 48.7111C195.053 48.5643 194.953 48.3786 194.909 48.1761C194.845 47.7161 195.145 47.3081 195.349 46.9041Z" fill="#263238"/>
<path d="M193.141 68.0001L195.141 46.1401C195.195 45.6686 195.425 45.2348 195.784 44.9245C196.144 44.6142 196.606 44.4499 197.081 44.4641L207.385 43.3081C210.621 43.4081 212.185 47.6241 211.969 50.8521C211.709 54.4521 211.245 58.8081 210.461 61.4041C208.885 66.6241 204.705 66.7441 204.705 66.7441C204.705 66.7441 204.681 66.9521 204.393 68.8841C204.393 68.8841 203.869 72.8841 199.409 72.0081C196.513 71.4401 193.141 68.0001 193.141 68.0001Z" fill="#FFBF9D"/>
<path d="M210.065 55.0239C210.043 55.2024 209.952 55.3651 209.812 55.4772C209.671 55.5894 209.492 55.642 209.313 55.6239C209.225 55.6189 209.139 55.5964 209.06 55.5577C208.981 55.519 208.91 55.465 208.852 55.3987C208.794 55.3324 208.75 55.2553 208.722 55.1717C208.694 55.0881 208.683 54.9998 208.689 54.912C208.713 54.7333 208.805 54.5708 208.946 54.4583C209.087 54.3458 209.266 54.2919 209.445 54.3079C209.533 54.313 209.62 54.3356 209.699 54.3746C209.778 54.4136 209.849 54.4681 209.907 54.5348C209.965 54.6016 210.008 54.6793 210.036 54.7633C210.063 54.8473 210.073 54.936 210.065 55.0239Z" fill="#263238"/>
<path d="M210.721 52.9963C210.625 53.0723 210.157 52.6203 209.421 52.5203C208.685 52.4203 208.093 52.7163 208.025 52.6163C207.957 52.5163 208.101 52.4203 208.361 52.2803C208.71 52.105 209.105 52.0408 209.493 52.0963C209.875 52.1457 210.231 52.3168 210.509 52.5843C210.713 52.8003 210.769 52.9603 210.721 52.9963Z" fill="#263238"/>
<path d="M203.653 54.056C203.63 54.2348 203.538 54.3975 203.397 54.5096C203.256 54.6216 203.077 54.6742 202.897 54.656C202.81 54.6504 202.724 54.6276 202.645 54.5887C202.567 54.5498 202.496 54.4956 202.439 54.4294C202.381 54.3632 202.337 54.2862 202.309 54.2029C202.282 54.1196 202.271 54.0316 202.277 53.944C202.3 53.765 202.392 53.6018 202.533 53.4892C202.674 53.3765 202.853 53.323 203.033 53.34C203.121 53.345 203.208 53.3677 203.287 53.4067C203.366 53.4457 203.437 53.5001 203.495 53.5669C203.552 53.6337 203.596 53.7114 203.624 53.7954C203.651 53.8794 203.661 53.968 203.653 54.056Z" fill="#263238"/>
<path d="M203.678 51.7761C203.582 51.8561 203.114 51.4001 202.378 51.3001C201.642 51.2001 201.05 51.4961 200.982 51.3961C200.914 51.2961 201.058 51.2001 201.318 51.0641C201.666 50.8858 202.062 50.8201 202.45 50.8761C202.832 50.9267 203.189 51.0992 203.466 51.3681C203.67 51.5721 203.726 51.7441 203.678 51.7761Z" fill="#263238"/>
<path d="M205.391 57.9725C205.795 57.9021 206.206 57.8833 206.615 57.9165C206.807 57.9165 206.991 57.9165 207.039 57.7885C207.082 57.5961 207.065 57.3951 206.991 57.2125C206.875 56.7325 206.755 56.2325 206.631 55.7045C206.135 53.5605 205.807 51.8085 205.895 51.7885C205.983 51.7685 206.451 53.4925 206.943 55.6365C207.059 56.1645 207.175 56.6685 207.279 57.1485C207.369 57.3911 207.369 57.6579 207.279 57.9005C207.243 57.9632 207.194 58.0168 207.134 58.0571C207.074 58.0974 207.006 58.1232 206.935 58.1325C206.826 58.1444 206.716 58.1444 206.607 58.1325C206.196 58.1285 205.788 58.0747 205.391 57.9725Z" fill="#263238"/>
<path d="M204.706 66.7521C202.189 66.4488 199.806 65.4516 197.822 63.8721C197.822 63.8721 199.114 67.8121 204.522 68.0401L204.706 66.7521Z" fill="#FF9A6C"/>
<path d="M204.837 59.7042C204.72 59.5083 204.556 59.3453 204.36 59.2306C204.163 59.1158 203.94 59.053 203.713 59.0482C203.548 59.0392 203.384 59.064 203.23 59.1211C203.076 59.1783 202.935 59.2664 202.817 59.3802C202.7 59.4891 202.62 59.6315 202.588 59.7876C202.556 59.9437 202.573 60.106 202.637 60.2522C202.737 60.4 202.88 60.5147 203.046 60.5816C203.211 60.6486 203.393 60.6648 203.569 60.6282C203.933 60.5511 204.28 60.4044 204.589 60.1962C204.679 60.1458 204.76 60.0809 204.829 60.0042C204.86 59.9669 204.88 59.9216 204.886 59.8734C204.892 59.8252 204.885 59.7763 204.865 59.7322" fill="#FF9A6C"/>
<path d="M203.153 58.1839C203.273 58.1839 203.153 58.9839 203.773 59.6519C204.393 60.3199 205.241 60.3439 205.233 60.4519C205.233 60.5039 205.021 60.5799 204.661 60.5399C204.192 60.483 203.759 60.2619 203.437 59.9159C203.126 59.5854 202.958 59.1456 202.969 58.6919C202.981 58.3559 203.097 58.1719 203.153 58.1839Z" fill="#263238"/>
<path d="M204.309 48.8442C204.209 49.0322 203.485 48.8442 202.609 48.8442C201.733 48.8442 201.009 48.9682 200.909 48.7762C200.869 48.6802 201.017 48.5082 201.309 48.3762C201.716 48.1843 202.163 48.0925 202.613 48.1082C203.061 48.1174 203.5 48.2311 203.897 48.4402C204.213 48.5722 204.353 48.7522 204.309 48.8442Z" fill="#263238"/>
<path d="M210.949 49.7483C210.793 49.8963 210.313 49.6523 209.701 49.5603C209.089 49.4683 208.561 49.5203 208.465 49.3283C208.425 49.2363 208.529 49.0803 208.777 48.9523C209.106 48.8036 209.472 48.7561 209.828 48.8159C210.185 48.8758 210.515 49.0402 210.777 49.2883C210.969 49.4923 211.017 49.6723 210.949 49.7483Z" fill="#263238"/>
<path d="M193.649 45.1643C194.997 42.1923 199.973 38.4483 203.177 39.0523L207.977 42.7563C207.705 43.6175 207.206 44.3895 206.533 44.9908C205.859 45.592 205.035 46.0002 204.149 46.1723C203.205 46.3403 202.097 46.2883 201.461 47.0083C200.825 47.7283 201.001 48.9523 200.385 49.7163C199.537 50.7803 197.585 50.4963 196.909 51.6723C196.609 52.1843 196.657 52.8483 196.349 53.3563C195.949 54.0323 194.021 54.7283 193.301 54.4003C192.581 54.0723 192.725 52.8003 192.561 52.1043C192.34 51.3087 192.399 50.4614 192.729 49.7043C193.233 48.2443 193.009 46.5843 193.649 45.1643Z" fill="#263238"/>
<path d="M195.437 55.2922C195.489 54.8922 195.157 53.8962 194.773 53.7802C193.749 53.4762 191.849 53.3002 191.465 55.9602C190.945 59.5962 194.701 59.3682 194.725 59.2642C194.749 59.1602 195.253 56.6642 195.437 55.2922Z" fill="#FFBF9D"/>
<path d="M193.815 57.7282C193.815 57.7282 193.743 57.7642 193.631 57.7962C193.471 57.8382 193.301 57.8182 193.155 57.7402C192.791 57.5442 192.555 56.8882 192.631 56.2282C192.667 55.9156 192.772 55.6149 192.939 55.3482C192.99 55.2427 193.067 55.1513 193.162 55.0817C193.256 55.0121 193.366 54.9663 193.483 54.9482C193.558 54.9389 193.635 54.9561 193.699 54.997C193.763 55.0378 193.811 55.0998 193.835 55.1722C193.867 55.2842 193.835 55.3522 193.835 55.3602C193.835 55.3682 193.923 55.3122 193.915 55.1562C193.907 55.0629 193.868 54.9752 193.803 54.9082C193.713 54.8188 193.593 54.7672 193.467 54.7642C193.313 54.7728 193.164 54.8207 193.035 54.9033C192.905 54.986 192.799 55.1006 192.727 55.2362C192.524 55.5268 192.399 55.864 192.363 56.2162C192.279 56.9522 192.555 57.6922 193.059 57.9162C193.151 57.9614 193.252 57.9849 193.355 57.9849C193.457 57.9849 193.558 57.9614 193.651 57.9162C193.795 57.8162 193.823 57.7362 193.815 57.7282Z" fill="#FF9A6C"/>
<path d="M207.027 41.5486C207.219 43.0686 209.291 45.1966 210.171 46.4486C211.847 48.8486 212.151 49.6126 211.651 54.5446C212.711 52.9446 213.555 51.3446 213.675 49.3926C213.824 47.4447 213.255 45.5097 212.075 43.9526C211.479 43.1882 210.712 42.5733 209.837 42.1567C208.961 41.7401 208.001 41.5332 207.031 41.5526" fill="#263238"/>
<path d="M191.795 44.9363C191.99 45.0253 192.192 45.0975 192.399 45.1523C192.595 45.2163 192.839 45.2883 193.127 45.3523C193.415 45.4163 193.735 45.5083 194.103 45.5603C194.957 45.7187 195.822 45.8123 196.691 45.8403C197.754 45.8691 198.817 45.8115 199.871 45.6683C200.924 45.5128 201.962 45.2707 202.975 44.9443C203.798 44.6736 204.6 44.3434 205.375 43.9563C205.715 43.8003 205.999 43.6243 206.255 43.4803C206.511 43.3363 206.727 43.2003 206.895 43.0803C207.079 42.9692 207.255 42.8435 207.419 42.7043C207.221 42.7885 207.031 42.8902 206.851 43.0083C206.675 43.1123 206.451 43.2403 206.195 43.3683C205.939 43.4963 205.647 43.6683 205.311 43.8123C204.532 44.1763 203.73 44.4889 202.911 44.7483C201.904 45.058 200.876 45.2919 199.835 45.4483C198.793 45.5886 197.742 45.6514 196.691 45.6363C195.831 45.6177 194.973 45.5402 194.123 45.4043C193.759 45.3603 193.435 45.2843 193.151 45.2283C192.867 45.1723 192.619 45.1163 192.419 45.0643C192.216 45.0017 192.007 44.9588 191.795 44.9363Z" fill="#455A64"/>
<path d="M191.156 47.5161C191.282 47.5829 191.417 47.6314 191.556 47.6601C191.939 47.7704 192.328 47.8599 192.72 47.9281C195.326 48.3805 198.006 48.1207 200.476 47.1761C200.86 47.038 201.236 46.8763 201.6 46.6921C201.736 46.6373 201.862 46.5632 201.976 46.4721C201.976 46.4401 201.4 46.7081 200.456 47.0321C197.99 47.8806 195.359 48.1342 192.776 47.7721C191.768 47.6361 191.164 47.4801 191.156 47.5161Z" fill="#455A64"/>
<path d="M152.37 147.556L144.498 144.356L141.102 150.36L142.754 153.928L150.058 156.432L152.37 147.556Z" fill="#FFBF9D"/>
<path d="M143.202 154.82L142.602 154.584C142.602 154.584 134.494 163.312 132.518 162.648L140.59 142.104L147.202 145.116C144.614 147.6 143.202 150.736 143.202 154.82Z" fill="#455A64"/>
<g opacity="0.6">
<path d="M144.24 146.32C144.259 146.1 144.197 145.88 144.065 145.703C143.933 145.526 143.74 145.404 143.524 145.36C143.305 145.334 143.085 145.394 142.909 145.527C142.734 145.659 142.616 145.854 142.58 146.072C142.559 146.305 142.625 146.537 142.765 146.724C142.906 146.911 143.111 147.039 143.34 147.084C143.571 147.087 143.795 147.001 143.963 146.842C144.132 146.684 144.233 146.467 144.244 146.236" fill="white"/>
</g>
<g opacity="0.6">
<path d="M140.593 142.104L142.193 142.828L133.869 162.256C133.869 162.256 133.121 163.012 132.529 162.656L140.593 142.104Z" fill="white"/>
</g>
<path d="M142.522 154.632C142.422 154.588 142.574 154.068 142.454 153.432C142.334 152.796 142.018 152.376 142.094 152.3C142.17 152.224 142.678 152.604 142.814 153.36C142.95 154.116 142.602 154.692 142.522 154.632Z" fill="#263238"/>
<path d="M140.801 156.432C140.697 156.432 140.697 155.912 140.401 155.404C140.105 154.896 139.713 154.604 139.757 154.516C139.801 154.428 140.385 154.58 140.725 155.224C141.065 155.868 140.893 156.468 140.801 156.432Z" fill="#263238"/>
<path d="M137.781 156.624C137.781 156.524 138.341 156.588 138.781 157.064C139.221 157.54 139.249 158.096 139.153 158.104C139.057 158.112 138.877 157.704 138.513 157.304C138.149 156.904 137.749 156.728 137.781 156.624Z" fill="#263238"/>
<path d="M148.314 145.636C148.314 145.636 154.458 147.312 158.674 148.096C162.89 148.88 167.73 150.008 171.074 150.896C174.598 151.812 176.162 152.332 176.162 152.332C176.162 152.332 176.962 153.376 177.562 149.236C178.162 145.096 180.002 130.144 180.002 130.144L182.026 123.712L194.178 121.584L200.626 130.092C200.626 130.092 194.798 149.012 192.814 152.928C190.83 156.844 188.014 168.256 181.158 166.476C177.102 165.424 145.426 155.476 145.426 155.476L148.314 145.636Z" fill="#263238"/>
<path opacity="0.3" d="M179.358 135.512L179.306 135.936L179.174 136.988L188.482 132.504C188.482 132.504 188.542 136.78 197.282 140.104L198.394 138.168V132.504L191.638 127.252H186.966L179.522 132.852" fill="black"/>
<path d="M198.166 138.22C197.889 139.326 197.547 140.414 197.142 141.48C196.8 142.57 196.392 143.638 195.922 144.68C196.197 143.573 196.539 142.485 196.946 141.42C197.284 140.328 197.691 139.259 198.166 138.22Z" fill="#455A64"/>
<path d="M179.554 156.344C179.152 155.58 178.685 154.851 178.158 154.168C177.575 153.533 176.938 152.949 176.254 152.424C176.501 152.504 176.731 152.627 176.934 152.788C177.45 153.138 177.916 153.558 178.318 154.036C178.718 154.513 179.053 155.042 179.314 155.608C179.436 155.837 179.518 156.086 179.554 156.344Z" fill="#455A64"/>
<path d="M180.622 119.096C180.622 119.096 178.598 124.376 178.67 127.356C178.742 130.336 177.578 136.308 177.578 136.308C177.578 136.308 188.51 130.44 189.326 129.728C189.326 129.728 188.526 135.616 197.814 138.36L198.614 138.668L201.466 130.068C202.448 128.554 203.277 126.946 203.942 125.268C204.694 123.1 205.742 119.104 205.742 119.104L184.99 113.2L180.622 119.096Z" fill="#455A64"/>
<path d="M205.754 125.056C205.754 125.056 210.858 132.1 210.93 133.252L197.954 135.824L196.754 130.88L196.23 125.732L205.754 125.056Z" fill="#455A64"/>
<path d="M185.946 78.492C186.082 78.868 188.746 88.064 188.746 88.064L190.346 101.412C190.346 101.412 187.654 109.312 185.386 111.896C178.354 119.932 179.114 122.124 179.114 122.124C179.114 122.124 191.01 118.924 196.87 119.804C202.73 120.684 201.134 130.76 209.67 128.368L209.602 120.152C209.602 120.152 210.674 112.572 210.942 109.924C211.21 107.276 210.846 97.76 210.846 97.76C210.846 97.76 213.778 88.44 213.778 85.42C213.778 82.4 214.478 82.268 212.062 78.112C209.646 73.956 206.062 68.416 206.062 68.416L192.61 67.28L185.154 74.964L185.946 78.492Z" fill="#E0E0E0"/>
<path d="M202.68 127.004C202.732 127.004 201.98 129.5 200.996 132.536C200.012 135.572 199.172 138.024 199.116 138.004C199.06 137.984 199.816 135.512 200.8 132.472C201.784 129.432 202.624 126.984 202.68 127.004Z" fill="#263238"/>
<path d="M185.487 78.8679C183.715 79.3439 182.147 79.8919 180.211 78.8679C178.275 77.8439 176.655 75.9239 176.611 73.7319C176.587 71.9399 176.583 68.6359 178.023 67.5679C179.463 66.4999 186.087 65.4119 189.795 65.4239C204.071 65.4679 205.911 67.8239 208.195 68.9959C208.29 69.4107 208.259 69.8446 208.106 70.2416C207.953 70.6387 207.684 70.9808 207.335 71.2239" fill="#9AC448"/>
<path d="M184.27 76.2001C184.27 76.2001 184.67 84.0641 185.258 87.0361C185.846 90.0081 188.21 98.9041 188.21 98.9041C188.21 98.9041 186.898 99.3961 187.094 101.176C187.094 101.176 185.674 102.412 185.514 105.132C185.354 107.852 186.142 109.036 186.142 109.036L184.606 112.124L210.35 116.992L210.782 114.084C210.782 114.084 212.646 115.284 212.986 109.684C213.326 104.084 212.658 99.9041 212.954 94.7641C213.25 89.6241 215.166 87.6201 214.674 82.9761C214.402 80.2481 205.742 68.8001 205.742 68.8001C205.742 68.8001 193.158 66.6601 191.894 68.0361C190.63 69.4121 184.27 76.2001 184.27 76.2001Z" fill="#9AC448"/>
<g opacity="0.3">
<path d="M211.603 100.436C205.411 96.9557 200.915 91.1677 196.591 85.5277L196.135 84.3997C196.579 86.7557 196.703 90.0397 197.151 92.3997C197.448 94.3253 197.939 96.2162 198.615 98.0437C199.296 99.8824 200.514 101.474 202.111 102.612C204.911 104.456 208.711 104.152 211.651 102.572C212.083 102.34 212.551 101.992 212.543 101.504C212.535 101.016 212.031 100.684 211.603 100.436Z" fill="black"/>
</g>
<path d="M183.713 81.3005C183.812 81.5186 183.892 81.7447 183.953 81.9765C184.093 82.4125 184.281 83.0525 184.501 83.8445C184.945 85.4445 185.481 87.6365 186.049 90.0805C186.617 92.5245 187.137 94.7365 187.549 96.3245C187.753 97.0965 187.921 97.7285 188.045 98.2085C188.117 98.4361 188.172 98.6688 188.209 98.9045C188.112 98.6856 188.032 98.4596 187.969 98.2285C187.821 97.7925 187.633 97.1565 187.409 96.3645C186.957 94.7645 186.409 92.5725 185.845 90.1285C185.281 87.6845 184.765 85.4725 184.361 83.8805C184.161 83.1125 183.997 82.4765 183.873 81.9965C183.803 81.7686 183.75 81.5361 183.713 81.3005Z" fill="#263238"/>
<path d="M196.2 103.5C195.754 103.365 195.317 103.201 194.892 103.008C194.092 102.692 192.988 102.252 191.736 101.864C190.668 101.533 189.573 101.294 188.464 101.148C187.612 101.044 187.08 101.036 187.08 101C187.203 100.968 187.33 100.957 187.456 100.968C187.798 100.959 188.14 100.971 188.48 101.004C189.606 101.106 190.718 101.329 191.796 101.668C192.872 102.003 193.925 102.404 194.952 102.868C195.352 103.048 195.66 103.196 195.876 103.308C195.992 103.358 196.101 103.422 196.2 103.5Z" fill="#263238"/>
<path d="M212.109 113.768C212.035 113.821 211.958 113.868 211.877 113.908C211.644 114.03 211.4 114.131 211.149 114.208C210.214 114.456 209.24 114.518 208.281 114.392C205.154 113.92 202.054 113.287 198.993 112.496C195.393 111.62 192.149 110.796 189.793 110.252L186.993 109.628L186.229 109.46C186.139 109.445 186.05 109.421 185.965 109.388C186.056 109.389 186.148 109.4 186.237 109.42L187.009 109.548C187.677 109.664 188.637 109.856 189.809 110.108C192.181 110.616 195.437 111.42 199.029 112.296C202.621 113.172 205.893 113.896 208.285 114.244C209.228 114.382 210.188 114.343 211.117 114.128C211.454 114.027 211.785 113.906 212.109 113.768Z" fill="#263238"/>
<g opacity="0.3">
<path d="M181.17 79.1321C182.122 80.7321 184.17 81.5081 186.026 81.2641C187.882 81.0201 189.538 79.9161 190.802 78.5321C192.066 77.1481 192.986 75.4961 193.894 73.8601L196.362 69.4121C193.434 70.6321 192.438 74.0201 190.222 76.2921C188.006 78.5641 183.714 80.0681 181.17 79.1321Z" fill="black"/>
</g>
<path d="M196.608 69.4363C196.608 69.4363 196.316 69.5083 195.808 69.7323C195.122 70.0672 194.507 70.5333 194 71.1043C193.261 71.9694 192.613 72.9076 192.064 73.9043C191.717 74.4856 191.339 75.0477 190.932 75.5883C190.479 76.1631 189.953 76.6767 189.368 77.1163C188.237 77.9597 186.967 78.5987 185.616 79.0043C184.52 79.3559 183.371 79.5156 182.22 79.4763C181.439 79.4608 180.674 79.2578 179.988 78.8843C179.805 78.7809 179.634 78.656 179.48 78.5123C179.424 78.4646 179.373 78.411 179.328 78.3523C179.553 78.5199 179.786 78.6748 180.028 78.8163C180.714 79.1505 181.466 79.3256 182.228 79.3283C183.359 79.3472 184.486 79.1755 185.56 78.8203C186.885 78.4109 188.131 77.7792 189.244 76.9523C189.813 76.5219 190.327 76.022 190.772 75.4643C191.177 74.9312 191.554 74.3771 191.9 73.8043C192.465 72.8024 193.136 71.8638 193.9 71.0043C194.428 70.4316 195.068 69.974 195.78 69.6603C195.974 69.5805 196.175 69.5176 196.38 69.4723C196.454 69.4493 196.531 69.4372 196.608 69.4363Z" fill="#263238"/>
<path d="M194.306 100.152C194.278 100.216 192.974 99.6001 191.246 99.2601C190.196 99.088 189.137 98.9706 188.074 98.9081C188.382 98.838 188.699 98.8124 189.014 98.8321C189.777 98.8329 190.538 98.908 191.286 99.0561C192.033 99.205 192.763 99.4274 193.466 99.7201C193.765 99.8252 194.047 99.9705 194.306 100.152Z" fill="#263238"/>
<path d="M187.201 100.952C187.229 100.98 186.893 101.352 186.493 102.008C186.26 102.401 186.062 102.813 185.901 103.24C185.716 103.766 185.582 104.308 185.501 104.86C185.425 105.413 185.403 105.971 185.437 106.528C185.471 106.984 185.545 107.436 185.657 107.88C185.849 108.636 186.057 109.08 186.033 109.08C185.961 108.989 185.902 108.89 185.857 108.784C185.793 108.664 185.738 108.54 185.693 108.412C185.624 108.247 185.564 108.079 185.513 107.908C185.378 107.459 185.29 106.998 185.248 106.532C185.2 105.96 185.215 105.385 185.293 104.816C185.38 104.25 185.527 103.695 185.733 103.16C185.906 102.725 186.123 102.308 186.381 101.916C186.477 101.766 186.581 101.622 186.693 101.484C186.774 101.376 186.862 101.273 186.957 101.176C187.109 101.028 187.201 100.944 187.201 100.952Z" fill="#263238"/>
<g opacity="0.3">
<path d="M183.839 81.5039C183.577 83.4649 184.062 85.4528 185.199 87.0719C184.803 85.1999 184.255 83.3839 183.839 81.5039Z" fill="black"/>
</g>
<path d="M226.194 93.376C226.194 93.376 228.302 90.908 228.834 90.728C229.366 90.548 231.722 90.02 231.986 90.24C232.139 90.3714 232.321 90.4634 232.518 90.508C232.518 90.508 234.562 90.64 234.782 91.528C235.002 92.416 234.918 92.86 235.094 92.992C235.27 93.124 235.762 93.748 235.626 94.236C235.493 94.6972 235.434 95.1764 235.45 95.656C235.565 96.0163 235.632 96.3902 235.65 96.768C235.601 97.148 235.504 97.5202 235.362 97.876C235.446 98.0804 235.474 98.3038 235.442 98.5227C235.411 98.7416 235.321 98.9479 235.182 99.12C234.694 99.608 232.89 99.74 232.254 99.744C231.454 99.744 229.826 100.064 229.29 99.84C228.97 99.7075 228.639 99.6004 228.302 99.52L224.002 100.032L223.338 93.112L226.194 93.376Z" fill="#FFBF9D"/>
<path d="M232.775 90.5922C232.312 90.6838 231.842 90.74 231.371 90.7602C230.908 90.8478 230.438 90.8986 229.967 90.9122C230.396 90.6956 230.866 90.5729 231.347 90.5522C231.82 90.4627 232.307 90.4764 232.775 90.5922Z" fill="#FF9A6C"/>
<path d="M195.602 82.852C197.202 87.184 198.718 93.004 199.842 96.368C201.366 100.94 206.094 102.64 208.51 102.824C211.602 103.056 226.67 100.204 226.67 100.204L225.974 92.604L224.266 92.648C223.931 92.3414 223.514 92.1409 223.066 92.072C219.894 91.324 211.346 91.948 211.346 91.948C211.346 91.948 209.046 82.7041 208.546 78.1641C208.146 74.564 208.146 68.6921 202.518 68.3521C198.858 68.5241 196.494 69.8761 195.602 73.7961" fill="#9AC448"/>
<path d="M195.603 73.8121C195.603 73.8121 195.603 73.7561 195.635 73.6521C195.667 73.5481 195.699 73.3841 195.751 73.1801C195.915 72.5714 196.151 71.9845 196.455 71.4321C196.945 70.5331 197.676 69.7891 198.567 69.2841C199.79 68.6591 201.141 68.3251 202.515 68.3081L203.127 68.3841C203.338 68.403 203.547 68.4418 203.751 68.5001L204.383 68.6761L204.995 68.9601C205.83 69.4191 206.522 70.1002 206.995 70.9281C207.501 71.8284 207.856 72.8053 208.047 73.8201C208.258 74.9015 208.409 75.9939 208.499 77.0921C208.754 79.4813 209.143 81.8543 209.663 84.2001C210.183 86.6801 210.775 89.2681 211.431 91.9401L211.327 91.8681C213.375 91.7281 215.507 91.6321 217.695 91.6201C218.791 91.6201 219.903 91.6201 221.027 91.7121C221.593 91.7487 222.156 91.8169 222.715 91.9161C223 91.9613 223.281 92.0296 223.555 92.1201C223.838 92.221 224.097 92.3804 224.315 92.5881L224.239 92.5601L225.947 92.5161H226.043V92.6161V92.7201C226.279 95.2841 226.511 97.8001 226.731 100.2V100.292H226.639C223.579 100.864 220.603 101.384 217.735 101.844C216.297 102.076 214.891 102.285 213.515 102.472C212.135 102.66 210.787 102.824 209.459 102.896C208.159 102.955 206.862 102.73 205.659 102.236C204.52 101.801 203.457 101.188 202.511 100.42C201.638 99.6939 200.907 98.8124 200.355 97.8201C199.888 96.8935 199.521 95.9201 199.259 94.9161C198.123 91.1441 197.259 88.1161 196.603 86.0361C196.275 84.9961 196.007 84.2001 195.823 83.6601C195.735 83.3961 195.663 83.1921 195.615 83.0481C195.59 82.98 195.568 82.9105 195.551 82.8401C195.551 82.8401 195.579 82.9041 195.631 83.0401C195.683 83.1761 195.763 83.3841 195.859 83.6481C196.055 84.1841 196.335 84.9761 196.659 86.0121C197.347 88.0761 198.223 91.1121 199.375 94.8761C199.64 95.8692 200.009 96.8317 200.475 97.7481C201.02 98.7219 201.742 99.5859 202.603 100.296C203.538 101.048 204.586 101.649 205.707 102.076C206.89 102.555 208.163 102.771 209.439 102.712C210.755 102.64 212.103 102.472 213.479 102.284C214.855 102.096 216.259 101.884 217.691 101.648C220.555 101.184 223.531 100.664 226.587 100.092L226.503 100.2C226.283 97.8001 226.051 95.2881 225.815 92.7241V92.6201L225.919 92.7121L224.215 92.7561H224.171L224.139 92.7241C223.716 92.3682 223.193 92.1529 222.643 92.1081C222.092 92.0095 221.537 91.9427 220.979 91.9081C219.867 91.8281 218.759 91.8121 217.667 91.8121C215.483 91.8121 213.355 91.9161 211.311 92.0521H211.227L211.207 91.9681C210.551 89.2921 209.963 86.7041 209.451 84.2201C208.93 81.8669 208.545 79.4856 208.299 77.0881C208.212 75.9955 208.065 74.9086 207.859 73.8321C207.676 72.8324 207.331 71.8692 206.839 70.9801C206.376 70.1722 205.699 69.5078 204.883 69.0601L204.291 68.7801L203.675 68.6041C203.475 68.5439 203.27 68.505 203.063 68.4881L202.459 68.4081C201.101 68.4176 199.764 68.7392 198.551 69.3481C197.67 69.8387 196.943 70.5644 196.451 71.4441C196.143 71.989 195.899 72.5675 195.723 73.1681L195.591 73.6361L195.603 73.8121Z" fill="#263238"/>
<path d="M209.311 96.4001C210.476 95.1181 211.18 93.4837 211.311 91.7561C211.369 92.0078 211.38 92.2684 211.343 92.5241C211.292 93.1457 211.141 93.755 210.895 94.3281C210.65 94.9022 210.312 95.432 209.895 95.8961C209.736 96.1014 209.537 96.2728 209.311 96.4001Z" fill="#263238"/>
<path d="M224.804 100.4C224.592 99.1303 224.449 97.8498 224.376 96.5643C224.236 95.2836 224.164 93.9965 224.16 92.7083C224.372 93.9794 224.514 95.2614 224.584 96.5482C224.727 97.8274 224.8 99.1132 224.804 100.4Z" fill="#263238"/>
</svg>
