<svg width="34" height="34" viewBox="0 0 34 34" fill="none" xmlns="http://www.w3.org/2000/svg">
<g id="ticket 1">
<path id="Vector" d="M3.54195 13.4583C3.11128 13.4583 2.70611 13.1948 2.54603 12.767C2.34061 12.2173 2.6197 11.6053 3.16936 11.3999L25.6944 2.98914C26.9722 2.51456 28.4724 3.22714 28.9102 4.51631L31.4644 12.0544C31.6529 12.6111 31.3539 13.2132 30.7986 13.4016C30.2447 13.5886 29.6398 13.2911 29.4514 12.7358L26.8971 5.19772C26.8574 5.07872 26.7384 4.95831 26.5628 4.95831L3.91311 13.3917C3.79128 13.4371 3.6652 13.4583 3.54195 13.4583Z" fill="url(#paint0_linear_1053_1511)"/>
<path id="Vector_2" d="M30.1042 31.1666H3.89583C1.74675 31.1666 0 29.4198 0 27.2708V24.7916C0 24.2051 0.476 23.7291 1.0625 23.7291H1.77083C3.13792 23.7291 4.25 22.617 4.25 21.2499C4.25 19.8828 3.13792 18.7708 1.77083 18.7708H1.0625C0.476 18.7708 0 18.2948 0 17.7083V15.2291C0 13.08 1.74675 11.3333 3.89583 11.3333H30.1042C32.2532 11.3333 34 13.08 34 15.2291V17.7083C34 18.2948 33.524 18.7708 32.9375 18.7708H32.2292C30.8621 18.7708 29.75 19.8828 29.75 21.2499C29.75 21.9115 30.0078 22.5348 30.4767 23.0023C30.9457 23.4698 31.5676 23.7277 32.2277 23.7277H32.9361C33.5226 23.7277 33.9986 24.2037 33.9986 24.7902V27.2693C34 29.4198 32.2532 31.1666 30.1042 31.1666ZM2.125 25.8413V27.2708C2.125 28.2468 2.91975 29.0416 3.89583 29.0416H30.1042C31.0802 29.0416 31.875 28.2468 31.875 27.2708V25.8399C30.7799 25.7578 29.7599 25.2903 28.9737 24.5054C28.1038 23.6356 27.625 22.4796 27.625 21.2499C27.625 18.8303 29.5007 16.8413 31.875 16.6585V15.2291C31.875 14.253 31.0802 13.4583 30.1042 13.4583H3.89583C2.91975 13.4583 2.125 14.253 2.125 15.2291V16.6585C4.49933 16.8398 6.375 18.8303 6.375 21.2499C6.375 23.6696 4.49933 25.6586 2.125 25.8413Z" fill="url(#paint1_linear_1053_1511)"/>
<path id="Vector_3" d="M12.3965 15.2292C11.81 15.2292 11.334 14.7532 11.334 14.1667V12.75C11.334 12.1635 11.81 11.6875 12.3965 11.6875C12.983 11.6875 13.459 12.1635 13.459 12.75V14.1667C13.459 14.7532 12.983 15.2292 12.3965 15.2292Z" fill="url(#paint2_linear_1053_1511)"/>
<path id="Vector_4" d="M12.3965 24.0834C11.81 24.0834 11.334 23.6074 11.334 23.0209V19.4792C11.334 18.8927 11.81 18.4167 12.3965 18.4167C12.983 18.4167 13.459 18.8927 13.459 19.4792V23.0209C13.459 23.6074 12.983 24.0834 12.3965 24.0834Z" fill="url(#paint3_linear_1053_1511)"/>
<path id="Vector_5" d="M12.3965 30.8124C11.81 30.8124 11.334 30.3364 11.334 29.7499V28.3333C11.334 27.7468 11.81 27.2708 12.3965 27.2708C12.983 27.2708 13.459 27.7468 13.459 28.3333V29.7499C13.459 30.3364 12.983 30.8124 12.3965 30.8124Z" fill="url(#paint4_linear_1053_1511)"/>
</g>
<defs>
<linearGradient id="paint0_linear_1053_1511" x1="2.47852" y1="2.84155" x2="31.6886" y2="3.32493" gradientUnits="userSpaceOnUse">
<stop stop-color="#F46C9C"/>
<stop offset="1" stop-color="#E6296B"/>
</linearGradient>
<linearGradient id="paint1_linear_1053_1511" x1="0" y1="11.3333" x2="34.202" y2="11.6879" gradientUnits="userSpaceOnUse">
<stop stop-color="#F46C9C"/>
<stop offset="1" stop-color="#E6296B"/>
</linearGradient>
<linearGradient id="paint2_linear_1053_1511" x1="11.334" y1="11.6875" x2="13.4718" y2="11.6953" gradientUnits="userSpaceOnUse">
<stop stop-color="#F76599"/>
<stop offset="1" stop-color="#F56094"/>
</linearGradient>
<linearGradient id="paint3_linear_1053_1511" x1="11.334" y1="18.4167" x2="13.4718" y2="18.4216" gradientUnits="userSpaceOnUse">
<stop stop-color="#F76599"/>
<stop offset="1" stop-color="#F56094"/>
</linearGradient>
<linearGradient id="paint4_linear_1053_1511" x1="11.334" y1="27.2708" x2="13.4718" y2="27.2785" gradientUnits="userSpaceOnUse">
<stop stop-color="#F76599"/>
<stop offset="1" stop-color="#F56094"/>
</linearGradient>
</defs>
</svg>
